<?xml version="1.0" encoding="utf-8"?>
<!-- Generator: Adobe Illustrator 19.2.1, SVG Export Plug-In . SVG Version: 6.00 Build 0)  -->
<svg version="1.1" id="Layer_1" xmlns="http://www.w3.org/2000/svg" xmlns:xlink="http://www.w3.org/1999/xlink" x="0px" y="0px"
	 viewBox="0 0 500 500" style="enable-background:new 0 0 500 500;" xml:space="preserve">
<style type="text/css">
	.st0{fill:#211915;}
</style>
<g>
	<g>
		<g>
			<path class="st0" d="M308.6,285.9c5.8,3.9,13,5.2,20,5.2c4.3,0,8.5-0.4,12.8-0.9c3.1-0.4,6.3-0.8,9.1-2.3
				c0.5-0.3,0.1-0.9-0.4-0.7c-3.4,1.5-7,1.9-10.7,2.3c-3.6,0.4-7.2,0.7-10.8,0.7c-6.9,0-13.6-1.4-19.7-4.8
				C308.6,285.2,308.3,285.7,308.6,285.9L308.6,285.9z"/>
		</g>
	</g>
	<g>
		<g>
			<path class="st0" d="M309.6,280.7c5.2,4.8,13.7,5,20.5,5.2c4.2,0.1,8.5-0.2,12.7-0.8c2.6-0.4,6.1-0.7,7.7-3.1
				c0.1-0.2-0.1-0.5-0.3-0.3c-2.8,2.1-6,2.5-9.4,2.9c-3.5,0.4-7.1,0.6-10.7,0.5c-6.5-0.1-14.9-0.3-20.1-4.8
				C309.7,280.1,309.4,280.5,309.6,280.7L309.6,280.7z"/>
		</g>
	</g>
	<g>
		<g>
			<path class="st0" d="M310.8,275.7c6.2,4.1,14.7,4.1,21.9,4.2c6,0.1,14.7-0.2,19-5.1c0.2-0.2-0.1-0.6-0.3-0.4
				c-3,1.5-5.6,3.1-9,3.8c-3.3,0.7-6.7,0.8-10.1,0.7c-7.3-0.1-14.5-0.6-21.2-3.8C310.7,275.1,310.5,275.5,310.8,275.7L310.8,275.7z"
				/>
		</g>
	</g>
	<g>
		<g>
			<path class="st0" d="M310.4,268.4c7,2.7,14.8,3.7,22.2,3.6c3.6-0.1,7.3-0.4,10.9-1c2.2-0.4,6.5-0.5,7.6-2.8
				c0.2-0.3-0.2-0.7-0.5-0.4c-1.2,1.3-3.4,1.6-5.1,1.9c-1.9,0.4-3.8,0.7-5.7,0.9c-3.1,0.4-6.3,0.5-9.4,0.5
				c-6.8-0.1-13.3-1.5-19.8-3.2C310.2,267.9,310.1,268.3,310.4,268.4L310.4,268.4z"/>
		</g>
	</g>
	<g>
		<g>
			<path class="st0" d="M310.8,271.3c5.9,4.2,13.1,4.7,20.1,4.7c6.3,0,14.8,0.5,19.8-4c0.2-0.2-0.1-0.5-0.3-0.4
				c-3.5,1.7-6.6,2.9-10.5,3.3c-3.1,0.3-6.3,0.3-9.4,0.3c-6.7,0-13.6-0.6-19.4-4.4C310.8,270.6,310.5,271.1,310.8,271.3L310.8,271.3
				z"/>
		</g>
	</g>
	<g>
		<g>
			<path class="st0" d="M310.3,263.9c6.8,3.5,14.7,4.2,22.2,4.1c4,0,8.1-0.3,12-0.8c2.9-0.3,5.8-0.9,7.9-3.1c0.1-0.2,0-0.4-0.2-0.3
				c-6,3.5-13.9,3.3-20.6,3.3c-7.3,0-14.2-1.2-21.1-3.8C310.2,263.3,310,263.8,310.3,263.9L310.3,263.9z"/>
		</g>
	</g>
	<g>
		<g>
			<path class="st0" d="M309.2,258.1c6.4,3.4,13.9,5,21.1,5.2c3.6,0.1,7.2-0.2,10.7-0.8c3.5-0.6,7.5-1.4,10.6-3.2
				c0.3-0.2,0.1-0.6-0.2-0.5c-3.3,0.8-6.4,2.1-9.8,2.8c-3.7,0.7-7.5,1-11.3,0.9c-7.3-0.2-14.1-2.1-20.9-4.8
				C309.2,257.6,309,258,309.2,258.1L309.2,258.1z"/>
		</g>
	</g>
	<g>
		<g>
			<path class="st0" d="M310.5,252c6.6,3.2,14.2,4.6,21.5,5c6.6,0.4,15.2,0.4,20.9-3.4c0.2-0.1,0.1-0.5-0.2-0.4
				c-3.5,1.2-6.8,2.4-10.5,2.8c-3.4,0.4-6.8,0.4-10.2,0.3c-7.4-0.4-14.3-2.3-21.3-4.6C310.4,251.6,310.3,251.9,310.5,252L310.5,252z
				"/>
		</g>
	</g>
	<g>
		<g>
			<path class="st0" d="M310.3,246.9c6.3,3,13.2,4.6,20.1,4.9c6.7,0.3,14.3-0.4,20.5-3.1c0.4-0.2,0.1-0.7-0.3-0.6
				c-6.8,1.7-13.2,3.2-20.2,2.9c-6.9-0.3-13.6-1.9-19.9-4.5C310.2,246.4,310,246.8,310.3,246.9L310.3,246.9z"/>
		</g>
	</g>
	<g>
		<g>
			<path class="st0" d="M308.5,241.4c6.6,3.1,14.5,4,21.7,3.9c3.6-0.1,7.2-0.5,10.8-1.3c3.5-0.8,7.6-1.6,10.7-3.6
				c0.2-0.1,0.1-0.5-0.2-0.4c-3.3,0.8-6.5,2.3-9.9,3.1c-3.7,0.9-7.6,1.3-11.4,1.4c-7.5,0.2-14.3-1.5-21.5-3.5
				C308.4,240.9,308.2,241.3,308.5,241.4L308.5,241.4z"/>
		</g>
	</g>
	<g>
		<g>
			<path class="st0" d="M309.6,236.6c13,5.3,29.1,5.4,42.4,1.2c0.5-0.2,0.3-0.9-0.2-0.8c-7,1.8-13.9,2.9-21.1,2.8
				c-7.2-0.2-14.1-1.6-21-3.5C309.4,236.2,309.3,236.5,309.6,236.6L309.6,236.6z"/>
		</g>
	</g>
	<g>
		<g>
			<path class="st0" d="M309.4,230.8c6.5,2.8,13.4,4.5,20.5,5c3.7,0.3,7.5,0.2,11.2-0.2c3.4-0.4,7.1-0.7,10.2-2.1
				c0.2-0.1,0.1-0.5-0.1-0.5c-3.4,0.4-6.7,1.4-10.1,1.8c-3.6,0.4-7.2,0.5-10.7,0.2c-7.2-0.4-14-2.3-20.8-4.7
				C309.3,230.3,309.1,230.7,309.4,230.8L309.4,230.8z"/>
		</g>
	</g>
	<g>
		<g>
			<path class="st0" d="M309.3,227C309.3,227,309.3,227,309.3,227C309.3,227,309.3,227,309.3,227L309.3,227z"/>
		</g>
	</g>
	<g>
		<g>
			<path class="st0" d="M309.9,226.6c13,5.6,29.1,5.9,42.5,1.5c0.5-0.2,0.3-0.9-0.2-0.7c-6.9,2-13.9,3.1-21.2,2.9
				c-7.3-0.2-14.1-1.8-21-4C309.8,226.1,309.7,226.5,309.9,226.6L309.9,226.6z"/>
		</g>
	</g>
	<g>
		<g>
			<path class="st0" d="M309.6,220.4c5.3,3.7,13.3,3.4,19.4,3.7c7.3,0.4,14.9,0.2,21.8-2.5c0.5-0.2,0.3-1-0.2-0.8
				c-6.7,2.4-13.6,2.8-20.7,2.5c-6.8-0.3-13.8-0.5-20.1-3.2C309.6,220,309.4,220.3,309.6,220.4L309.6,220.4z"/>
		</g>
	</g>
	<g>
		<g>
			<path class="st0" d="M309.9,214.4c2.1,2.1,5.5,2.4,8.3,2.9c4,0.7,8,1.1,12,1.3c4.1,0.2,8.3,0,12.4-0.4c2.9-0.3,6.8-0.3,9-2.5
				c0.1-0.1,0-0.4-0.2-0.3c-3.5,1-6.7,1.7-10.3,2c-3.5,0.3-7,0.4-10.5,0.3c-3.8-0.1-7.6-0.5-11.3-1.1c-3.1-0.5-6.6-0.8-9.2-2.6
				C309.9,213.9,309.7,214.2,309.9,214.4L309.9,214.4z"/>
		</g>
	</g>
	<g>
		<g>
			<path class="st0" d="M309.7,209.1c6.6,2.8,14.2,3.2,21.2,3.2c3.8,0,7.5-0.1,11.3-0.3c3-0.1,6.9-0.2,9.4-1.9
				c0.2-0.1,0.1-0.5-0.1-0.4c-3.3,0.4-6.4,1.4-9.7,1.5c-3.5,0.2-6.9,0.2-10.4,0.2c-7.4,0-14.4-0.9-21.5-2.8
				C309.6,208.6,309.4,209,309.7,209.1L309.7,209.1z"/>
		</g>
	</g>
	<g>
		<g>
			<path class="st0" d="M309.8,203.2c6.5,3.1,14.1,3.7,21.2,3.7c3.9,0,7.8-0.1,11.6-0.4c3.1-0.2,6.5-0.6,9.1-2.4
				c0.4-0.3,0.1-0.8-0.4-0.6c-6.3,2.9-14,2.6-20.8,2.6c-7.1,0-13.8-0.9-20.6-3.2C309.7,202.7,309.6,203.1,309.8,203.2L309.8,203.2z"
				/>
		</g>
	</g>
	<g>
		<g>
			<path class="st0" d="M309.3,197.7c5.6,3.8,13,3.8,19.5,3.9c6.8,0.2,15.1,0.2,21.2-3.3c0.4-0.2,0.1-0.8-0.3-0.7
				c-3.4,1-6.5,2.1-10,2.6c-3.5,0.5-7,0.5-10.5,0.5c-6.7-0.1-13.8,0-19.7-3.5C309.3,197.1,309,197.5,309.3,197.7L309.3,197.7z"/>
		</g>
	</g>
	<g>
		<g>
			<path class="st0" d="M309.6,192c6.5,2.5,14.1,3.3,21,3.4c6.8,0,14.8-0.4,21.1-3c0.4-0.2,0.3-0.7-0.2-0.6c-3.3,0.5-6.5,1.5-9.8,2
				c-3.7,0.6-7.4,0.8-11.2,0.8c-7.2,0-13.9-1.5-20.9-2.9C309.4,191.5,309.3,191.9,309.6,192L309.6,192z"/>
		</g>
	</g>
	<g>
		<g>
			<path class="st0" d="M309.8,187c6.3,2.9,13.8,3.8,20.6,4.1c7.2,0.3,14.8-0.4,21.8-2.6c0.6-0.2,0.3-1-0.2-0.9
				c-7,1.6-13.9,2.7-21.1,2.5c-7.3-0.2-13.9-1.9-20.9-3.5C309.8,186.6,309.6,187,309.8,187L309.8,187z"/>
		</g>
	</g>
	<g>
		<g>
			<path class="st0" d="M309.4,182c6.1,2.9,13.5,3.9,20.2,4.3c7.1,0.4,14.6,0,21.4-2c0.5-0.2,0.3-0.9-0.2-0.8
				c-6.9,1.3-13.7,2.2-20.7,1.9c-3.6-0.2-7.2-0.6-10.7-1.3c-3.3-0.7-6.5-1.8-9.7-2.5C309.3,181.6,309.2,181.9,309.4,182L309.4,182z"
				/>
		</g>
	</g>
	<g>
		<g>
			<path class="st0" d="M309.5,177.4c6.2,2.9,13.5,3.9,20.3,4.2c7,0.3,14.7,0,21.4-2.3c0.4-0.1,0.2-0.7-0.2-0.6
				c-7,1.3-13.6,2.5-20.8,2.2c-7.1-0.3-13.6-2.1-20.5-3.9C309.4,176.9,309.2,177.3,309.5,177.4L309.5,177.4z"/>
		</g>
	</g>
	<g>
		<g>
			<path class="st0" d="M309.4,173.1c6.5,2.6,13.8,3.8,20.8,4.1c6.8,0.3,14.6,0,21.1-2.4c0.4-0.1,0.2-0.7-0.2-0.6
				c-3.5,0.5-7,1.4-10.6,1.8c-3.4,0.4-6.9,0.5-10.4,0.4c-7.1-0.2-13.9-1.8-20.7-3.7C309.2,172.5,309.1,173,309.4,173.1L309.4,173.1z
				"/>
		</g>
	</g>
	<g>
		<g>
			<path class="st0" d="M310.2,168.1c6.3,2.7,13.2,3.9,20,4.2c3.5,0.1,7.1-0.1,10.6-0.6c3.2-0.4,6.7-0.9,9.7-2.3
				c0.3-0.2,0.1-0.6-0.2-0.6c-3.2,0.5-6.3,1.5-9.5,2c-3.5,0.5-7,0.7-10.5,0.6c-6.9-0.2-13.4-1.7-19.9-3.8
				C310.1,167.6,309.9,168,310.2,168.1L310.2,168.1z"/>
		</g>
	</g>
	<g>
		<g>
			<path class="st0" d="M309.4,162.9c6.4,2.6,13.7,3.7,20.6,3.9c6.7,0.2,14.5-0.2,20.8-2.7c0.4-0.2,0.3-0.7-0.2-0.6
				c-3.6,0.6-7,1.6-10.6,2c-3.3,0.4-6.7,0.6-10,0.5c-7.1-0.2-13.7-1.7-20.5-3.5C309.2,162.3,309.1,162.8,309.4,162.9L309.4,162.9z"
				/>
		</g>
	</g>
	<g>
		<g>
			<path class="st0" d="M310.8,158.4c6.3,2.7,13.9,2.9,20.7,2.9c5.8,0.1,14,1,19.1-2.4c0.3-0.2,0.1-0.6-0.2-0.5
				c-3.2,1-6.2,1.8-9.5,1.9c-3.1,0.1-6.3,0.2-9.4,0.1c-7.1,0-13.7-1-20.5-2.6C310.7,157.9,310.5,158.3,310.8,158.4L310.8,158.4z"/>
		</g>
	</g>
	<g>
		<g>
			<path class="st0" d="M310.5,153.6c6.3,2.4,13.5,3.2,20.3,3.1c6.7-0.1,14-1,20.2-3.6c0.5-0.2,0.3-1-0.2-0.9
				c-6.7,1.7-13,3.3-20,3.5c-6.9,0.2-13.4-1-20.2-2.4C310.3,153.2,310.2,153.5,310.5,153.6L310.5,153.6z"/>
		</g>
	</g>
	<g>
		<g>
			<path class="st0" d="M310.6,148.3c6.2,2.4,13.6,3,20.3,3.1c3.4,0,6.8-0.2,10.2-0.6c3.3-0.4,7-0.9,10.1-2.2
				c0.3-0.1,0.3-0.7-0.1-0.6c-3.1,0.4-6.1,1.3-9.2,1.8c-3.5,0.5-7,0.8-10.5,0.8c-7.1,0-13.7-1.4-20.6-2.6
				C310.5,147.9,310.4,148.2,310.6,148.3L310.6,148.3z"/>
		</g>
	</g>
	<g>
		<g>
			<path class="st0" d="M310.6,142.9c5.1,4,13.2,3.6,19.3,3.7c3.9,0.1,7.9,0.2,11.8-0.2c3.1-0.3,6.7-0.7,9.3-2.5
				c0.2-0.2,0.1-0.5-0.2-0.5c-3.4,0.7-6.5,1.9-10,2.2c-3.3,0.3-6.6,0.2-9.9,0.1c-7-0.1-13.6-0.2-20-3.2
				C310.7,142.5,310.4,142.8,310.6,142.9L310.6,142.9z"/>
		</g>
	</g>
	<g>
		<g>
			<path class="st0" d="M310.7,138.5c6.5,2.6,13.8,3.6,20.8,3.6c3.3,0,6.7-0.3,9.9-0.9c3.2-0.6,7.1-1.2,10-2.9
				c0.2-0.1,0.1-0.4-0.2-0.4c-3.2,0.5-6.3,1.8-9.6,2.4c-3.5,0.6-7,1-10.6,1c-7,0-13.5-1.4-20.2-3.3
				C310.5,137.9,310.4,138.4,310.7,138.5L310.7,138.5z"/>
		</g>
	</g>
	<g>
		<g>
			<path class="st0" d="M311,134.5c6.4,2,13.5,2.5,20.1,2.6c6.8,0.1,13.6-0.6,20.2-2.1c0.5-0.1,0.3-0.9-0.2-0.8
				c-6.6,1.3-13.3,2-20,2c-6.8,0-13.3-1.2-20-2.2C310.8,134,310.7,134.4,311,134.5L311,134.5z"/>
		</g>
	</g>
	<g>
		<g>
			<path class="st0" d="M311.1,128.6c4.3,4.4,12.4,3.6,17.9,3.8c7.6,0.3,15.8,0.3,23-2.4c0.5-0.2,0.3-0.9-0.2-0.8
				c-6.9,1.7-13.7,2.5-20.9,2.4c-3.3-0.1-6.7-0.2-10-0.4c-3.4-0.2-6.7-0.7-9.4-2.9C311.2,128.1,310.9,128.4,311.1,128.6L311.1,128.6
				z"/>
		</g>
	</g>
	<g>
		<g>
			<path class="st0" d="M311.1,124.9c2.9,1.5,6,1.9,9.2,2.1c3.7,0.3,7.5,0.5,11.2,0.6c6.4,0.1,14.6,0,20.2-3.4
				c0.3-0.2,0.1-0.6-0.2-0.5c-3.2,0.8-6.2,1.9-9.4,2.5c-3.5,0.5-7.1,0.7-10.6,0.7c-6.6,0-14,0.2-20.2-2.3
				C311,124.5,310.9,124.8,311.1,124.9L311.1,124.9z"/>
		</g>
	</g>
	<g>
		<g>
			<path class="st0" d="M311.1,119.9c7.3,2.7,15.3,3,22.9,3c5.7,0,13.5,0.9,18.1-3.3c0.3-0.2-0.1-0.7-0.4-0.5
				c-5.6,3.6-12.7,2.9-19.1,2.9c-7.3,0-14.4-0.7-21.4-2.7C310.9,119.3,310.8,119.8,311.1,119.9L311.1,119.9z"/>
		</g>
	</g>
	<g>
		<g>
			<path class="st0" d="M310.7,115.2c7.2,2.4,15.2,3.2,22.7,3.3c5.7,0.1,14,0.7,18.6-3.3c0.2-0.2,0-0.6-0.3-0.5
				c-3.1,1.3-5.9,2.4-9.3,2.7c-3.3,0.3-6.7,0.3-10,0.3c-7.4-0.2-14.4-1.6-21.6-2.9C310.6,114.7,310.5,115.1,310.7,115.2L310.7,115.2
				z"/>
		</g>
	</g>
	<g>
		<g>
			<path class="st0" d="M311.5,110.3c6,3.2,13.6,3.4,20.2,3.5c6.5,0.1,13.6,0.6,19.5-2.5c0.5-0.3,0.1-0.9-0.4-0.7
				c-6.2,2.7-12.9,2.5-19.5,2.4c-6.8-0.1-13.1-1.1-19.6-3C311.5,109.9,311.4,110.2,311.5,110.3L311.5,110.3z"/>
		</g>
	</g>
	<g>
		<g>
			<path class="st0" d="M311.2,106.2c6.8,2.3,14.5,2.3,21.6,2c3.6-0.1,7.3-0.3,10.9-0.6c2.6-0.2,5.5-0.6,7.6-2.3
				c0.2-0.2,0-0.6-0.3-0.5c-6.1,2.5-12.6,2.5-19.1,2.7c-7,0.2-13.7-0.4-20.6-1.6C311,105.8,310.9,106.2,311.2,106.2L311.2,106.2z"/>
		</g>
	</g>
	<g>
		<g>
			<path class="st0" d="M311.9,101.2c2.1,1.7,4.6,2.3,7.3,2.5c4,0.3,8.2,0.1,12.2,0.2c6.8,0,15.1,1.2,21.4-2.2
				c0.4-0.2,0.1-0.8-0.3-0.7c-6.4,2.6-13.3,2.1-20.1,2.1c-6.4,0-14.4,1.2-20.2-2.3C312,100.6,311.7,101,311.9,101.2L311.9,101.2z"/>
		</g>
	</g>
	<g>
		<g>
			<path class="st0" d="M311.5,96.1c2,2,5,2.7,7.7,3.1c3.6,0.5,7.3,0.8,10.9,1c6.7,0.4,14.6,1.1,20.8-1.9c0.4-0.2,0.1-0.9-0.3-0.7
				c-6.3,2.2-12.9,2.1-19.6,1.8c-6.5-0.3-13.6-0.3-19.3-3.7C311.5,95.5,311.3,95.9,311.5,96.1L311.5,96.1z"/>
		</g>
	</g>
	<g>
		<g>
			<path class="st0" d="M311.1,91.7c4,4.3,11.8,3.7,17,3.9c7.5,0.4,15,0.3,22.3-1.6c0.5-0.1,0.3-0.9-0.2-0.8
				c-6.8,1.7-13.7,1.9-20.6,1.6c-6.1-0.3-13.1,0.2-18.2-3.6C311.2,91.2,310.9,91.5,311.1,91.7L311.1,91.7z"/>
		</g>
	</g>
	<g>
		<g>
			<path class="st0" d="M311.5,88.7c6,2.6,13.3,2.7,19.8,2.9c6.8,0.2,14.2,0.6,20.7-2c0.4-0.2,0.3-0.8-0.2-0.7
				c-3.5,0.8-6.9,1.7-10.6,1.9c-3.1,0.2-6.3,0.1-9.5,0c-6.9-0.2-13.4-1.1-20.1-2.5C311.4,88.3,311.3,88.6,311.5,88.7L311.5,88.7z"/>
		</g>
	</g>
	<g>
		<g>
			<path class="st0" d="M312.4,84.7c6.4,2.6,14,2,20.8,2.3c6.2,0.3,12.6,0.7,18.5-1.9c0.5-0.2,0.1-1-0.3-0.8
				c-5.9,2.5-12.3,2.1-18.6,1.9c-6.7-0.3-13.7,0-20.2-1.9C312.2,84.2,312.1,84.6,312.4,84.7L312.4,84.7z"/>
		</g>
	</g>
	<g>
		<g>
			<path class="st0" d="M311.9,81c6.6,1.3,13.5,2,20.2,2.2c6.7,0.2,13.5-0.3,19.9-2.4c0.5-0.2,0.3-0.9-0.2-0.8
				c-6.6,1.8-13.3,2.6-20.1,2.4c-6.6-0.2-13.1-1.4-19.7-1.8C311.7,80.6,311.7,81,311.9,81L311.9,81z"/>
		</g>
	</g>
	<g>
		<g>
			<path class="st0" d="M158.4,432.7c5.9,3.9,13.1,5.1,20,5c4.3,0,8.5-0.5,12.8-1c3.1-0.4,6.3-0.8,9.1-2.3c0.5-0.3,0.1-0.9-0.4-0.7
				c-3.4,1.5-7,2-10.6,2.4c-3.6,0.4-7.2,0.7-10.8,0.8c-6.9,0-13.6-1.3-19.7-4.7C158.3,432,158.1,432.5,158.4,432.7L158.4,432.7z"/>
		</g>
	</g>
	<g>
		<g>
			<path class="st0" d="M159.3,427.5c5.3,4.8,13.8,4.9,20.5,5c4.2,0.1,8.5-0.2,12.7-0.9c2.6-0.4,6.1-0.7,7.7-3.1
				c0.1-0.2-0.1-0.5-0.3-0.3c-2.8,2.2-6,2.5-9.4,3c-3.5,0.4-7.1,0.6-10.7,0.6c-6.5-0.1-14.9-0.2-20.1-4.6
				C159.4,426.9,159.1,427.3,159.3,427.5L159.3,427.5z"/>
		</g>
	</g>
	<g>
		<g>
			<path class="st0" d="M160.4,422.5c6.2,4,14.7,4,21.9,4.1c6,0.1,14.6-0.3,18.9-5.2c0.2-0.2-0.1-0.6-0.3-0.4
				c-3,1.6-5.6,3.2-8.9,3.9c-3.3,0.7-6.7,0.8-10.1,0.8c-7.3-0.1-14.5-0.5-21.2-3.6C160.4,421.9,160.1,422.3,160.4,422.5L160.4,422.5
				z"/>
		</g>
	</g>
	<g>
		<g>
			<path class="st0" d="M160,415.2c7,2.7,14.8,3.6,22.3,3.4c3.6-0.1,7.1-0.4,10.6-1.1c2.2-0.4,6.6-0.5,7.7-2.9
				c0.2-0.3-0.2-0.7-0.5-0.4c-2,2.2-7.3,2.5-10.1,2.9c-3.3,0.5-6.7,0.7-10,0.7c-6.8-0.1-13.3-1.4-19.9-3
				C159.8,414.7,159.7,415.1,160,415.2L160,415.2z"/>
		</g>
	</g>
	<g>
		<g>
			<path class="st0" d="M160.4,418.1c5.9,4.1,13.2,4.6,20.2,4.6c6.3,0,14.8,0.4,19.8-4.1c0.2-0.2-0.1-0.5-0.3-0.4
				c-3.4,1.8-6.6,2.9-10.5,3.3c-3.1,0.3-6.3,0.3-9.4,0.3c-6.7,0-13.6-0.5-19.5-4.2C160.4,417.4,160.1,417.9,160.4,418.1L160.4,418.1
				z"/>
		</g>
	</g>
	<g>
		<g>
			<path class="st0" d="M159.9,410.7c6.8,3.4,14.8,4.1,22.2,3.9c4-0.1,8.1-0.3,12-0.9c2.9-0.4,5.8-0.9,7.9-3.1
				c0.1-0.2,0-0.4-0.2-0.3c-5.9,3.5-13.8,3.4-20.6,3.5c-7.3,0.1-14.3-1.1-21.1-3.6C159.8,410.1,159.6,410.6,159.9,410.7L159.9,410.7
				z"/>
		</g>
	</g>
	<g>
		<g>
			<path class="st0" d="M160,404.9c6.2,3.4,13.5,4.9,20.5,5c3.4,0.1,6.8-0.2,10.2-0.8c3.5-0.6,7.5-1.5,10.5-3.3
				c0.3-0.2,0.1-0.6-0.2-0.5c-3.3,0.8-6.4,2.2-9.7,2.9c-3.5,0.7-7.2,1-10.8,1c-7.1-0.1-13.8-2-20.3-4.6
				C159.9,404.4,159.7,404.8,160,404.9L160,404.9z"/>
		</g>
	</g>
	<g>
		<g>
			<path class="st0" d="M160,398.8c6.7,3.2,14.4,4.6,21.7,4.9c6.5,0.3,15.1,0.3,20.7-3.6c0.2-0.1,0.1-0.5-0.2-0.4
				c-3.3,1.1-6.3,2.3-9.7,2.8c-3.6,0.5-7.2,0.6-10.7,0.5c-7.5-0.3-14.5-2.2-21.6-4.5C159.9,398.4,159.7,398.7,160,398.8L160,398.8z"
				/>
		</g>
	</g>
	<g>
		<g>
			<path class="st0" d="M159.7,393.7c6.3,2.9,13.2,4.5,20.2,4.7c6.7,0.2,14.3-0.5,20.5-3.3c0.4-0.2,0.1-0.7-0.3-0.6
				c-6.8,1.7-13.1,3.3-20.2,3.1c-6.9-0.2-13.6-1.8-20-4.3C159.7,393.2,159.5,393.6,159.7,393.7L159.7,393.7z"/>
		</g>
	</g>
	<g>
		<g>
			<path class="st0" d="M160.3,388.2c6.2,3,13.7,3.9,20.5,3.7c3.4-0.1,6.8-0.6,10.2-1.3c3.3-0.8,7.2-1.7,10.1-3.7
				c0.2-0.1,0.1-0.5-0.2-0.4c-3.3,0.9-6.3,2.4-9.7,3.2c-3.4,0.8-6.9,1.3-10.4,1.4c-7.1,0.2-13.6-1.4-20.3-3.3
				C160.2,387.7,160,388,160.3,388.2L160.3,388.2z"/>
		</g>
	</g>
	<g>
		<g>
			<path class="st0" d="M160.3,383.4c12.6,5.1,28.2,5.2,41,0.9c0.5-0.2,0.3-0.9-0.2-0.8c-6.7,1.8-13.4,3-20.4,2.9
				c-7-0.1-13.6-1.5-20.3-3.4C160.2,383,160.1,383.3,160.3,383.4L160.3,383.4z"/>
		</g>
	</g>
	<g>
		<g>
			<path class="st0" d="M159.9,377.6c6.4,2.8,13.2,4.4,20.1,4.8c6.5,0.4,14.5,0.2,20.6-2.4c0.2-0.1,0.1-0.5-0.1-0.5
				c-3.4,0.5-6.7,1.5-10.1,1.9c-3.3,0.4-6.6,0.5-9.8,0.3c-7.1-0.4-13.8-2.2-20.4-4.5C159.8,377.1,159.6,377.5,159.9,377.6
				L159.9,377.6z"/>
		</g>
	</g>
	<g>
		<g>
			<path class="st0" d="M158.6,373.8C158.6,373.8,158.6,373.8,158.6,373.8C158.6,373.8,158.6,373.8,158.6,373.8L158.6,373.8z"/>
		</g>
	</g>
	<g>
		<g>
			<path class="st0" d="M160.2,373.4c12.7,5.5,28.5,5.7,41.5,1.2c0.5-0.2,0.3-0.9-0.2-0.7c-6.7,2-13.6,3.2-20.6,3
				c-7.1-0.2-13.8-1.7-20.5-3.9C160.1,372.9,160,373.3,160.2,373.4L160.2,373.4z"/>
		</g>
	</g>
	<g>
		<g>
			<path class="st0" d="M160,367.2c5.2,3.6,13.1,3.3,19.1,3.6c7,0.3,14.3,0.1,20.9-2.6c0.5-0.2,0.3-1-0.2-0.8
				c-6.4,2.4-13,2.9-19.8,2.6c-6.7-0.3-13.6-0.4-19.8-3.1C160,366.8,159.8,367.1,160,367.2L160,367.2z"/>
		</g>
	</g>
	<g>
		<g>
			<path class="st0" d="M159.1,361.2c2.1,2.1,5.5,2.4,8.3,2.9c4,0.7,8,1.1,12,1.2c4.1,0.1,8.3,0,12.4-0.4c2.9-0.3,6.8-0.4,9-2.6
				c0.1-0.1,0-0.4-0.2-0.3c-3.5,1-6.6,1.8-10.3,2.1c-3.5,0.3-7,0.4-10.5,0.3c-3.8-0.1-7.6-0.4-11.3-1c-3.1-0.4-6.6-0.7-9.2-2.5
				C159.1,360.7,158.9,361,159.1,361.2L159.1,361.2z"/>
		</g>
	</g>
	<g>
		<g>
			<path class="st0" d="M158.8,355.9c6.6,2.8,14.2,3.1,21.2,3.1c3.8,0,7.5-0.1,11.3-0.3c3-0.2,6.9-0.3,9.4-2
				c0.2-0.2,0.1-0.5-0.2-0.4c-1.7,0.2-3.3,0.9-5,1.1c-1.7,0.3-3.4,0.4-5.1,0.4c-3.5,0.2-7,0.3-10.4,0.3c-7.2,0-14.1-0.8-21.1-2.6
				C158.8,355.4,158.6,355.8,158.8,355.9L158.8,355.9z"/>
		</g>
	</g>
	<g>
		<g>
			<path class="st0" d="M158.9,350c6.6,3,14.1,3.6,21.2,3.5c3.9,0,7.8-0.2,11.6-0.5c3.1-0.2,6.5-0.6,9-2.5c0.4-0.3,0.1-0.8-0.4-0.6
				c-6.3,3-13.9,2.7-20.8,2.7c-7.1,0.1-13.9-0.8-20.6-3C158.9,349.5,158.7,349.9,158.9,350L158.9,350z"/>
		</g>
	</g>
	<g>
		<g>
			<path class="st0" d="M158.4,344.5c5.7,3.8,13,3.7,19.5,3.8c6.8,0.1,15.1,0.1,21.2-3.5c0.4-0.2,0.1-0.8-0.3-0.7
				c-3.4,1-6.5,2.2-10,2.7c-3.5,0.5-7,0.6-10.5,0.6c-6.7,0-13.8,0.1-19.7-3.4C158.4,343.9,158.1,344.3,158.4,344.5L158.4,344.5z"/>
		</g>
	</g>
	<g>
		<g>
			<path class="st0" d="M158.6,338.8c6.7,2.6,14.4,3.3,21.5,3.2c6.7,0,14.5-0.6,20.7-3.2c0.4-0.2,0.1-0.7-0.3-0.6
				c-3.3,0.5-6.5,1.6-9.8,2.1c-3.7,0.6-7.4,0.9-11.2,0.9c-7.2,0-14-1.4-21-2.7C158.5,338.3,158.4,338.7,158.6,338.8L158.6,338.8z"/>
		</g>
	</g>
	<g>
		<g>
			<path class="st0" d="M158.8,333.8c6.3,2.8,13.8,3.7,20.7,3.9c7.2,0.2,14.8-0.5,21.7-2.7c0.6-0.2,0.3-1-0.2-0.9
				c-7,1.7-13.9,2.8-21,2.7c-7.3-0.1-13.9-1.8-21-3.3C158.8,333.4,158.6,333.8,158.8,333.8L158.8,333.8z"/>
		</g>
	</g>
	<g>
		<g>
			<path class="st0" d="M158.4,328.9c6.1,2.9,13.6,3.8,20.2,4.1c7.1,0.4,14.6-0.1,21.4-2.1c0.5-0.2,0.3-0.9-0.2-0.8
				c-6.9,1.3-13.6,2.4-20.7,2.1c-3.6-0.1-7.2-0.6-10.8-1.3c-3.3-0.6-6.5-1.7-9.7-2.4C158.3,328.4,158.1,328.7,158.4,328.9
				L158.4,328.9z"/>
		</g>
	</g>
	<g>
		<g>
			<path class="st0" d="M158.4,324.2c6.2,2.8,13.6,3.8,20.3,4.1c7,0.3,14.7-0.2,21.4-2.5c0.4-0.1,0.2-0.7-0.2-0.6
				c-7,1.3-13.6,2.6-20.8,2.3c-7.2-0.2-13.7-2-20.5-3.7C158.3,323.7,158.1,324.1,158.4,324.2L158.4,324.2z"/>
		</g>
	</g>
	<g>
		<g>
			<path class="st0" d="M158.3,319.9c6.6,2.6,13.8,3.7,20.9,3.9c6.8,0.2,14.6-0.1,21.1-2.5c0.4-0.1,0.2-0.7-0.2-0.6
				c-3.5,0.6-7,1.5-10.5,1.9c-3.4,0.4-6.9,0.5-10.4,0.4c-7.1-0.2-13.9-1.7-20.7-3.6C158.1,319.4,158,319.8,158.3,319.9L158.3,319.9z
				"/>
		</g>
	</g>
	<g>
		<g>
			<path class="st0" d="M159.1,314.9c6.4,2.7,13.5,3.9,20.5,4c3.3,0.1,6.6-0.1,9.9-0.6c3.3-0.5,7-1,10-2.4c0.3-0.2,0.1-0.6-0.2-0.6
				c-3.2,0.5-6.3,1.6-9.5,2.1c-3.5,0.5-7,0.8-10.5,0.7c-6.9-0.1-13.4-1.6-19.9-3.6C158.9,314.4,158.8,314.8,159.1,314.9L159.1,314.9
				z"/>
		</g>
	</g>
	<g>
		<g>
			<path class="st0" d="M158.2,309.7c6.4,2.6,13.7,3.6,20.6,3.7c6.7,0.1,14.5-0.3,20.8-2.9c0.4-0.2,0.3-0.7-0.2-0.6
				c-3.3,0.6-6.5,1.5-9.8,2c-3.6,0.5-7.2,0.7-10.8,0.7c-7.1-0.1-13.7-1.6-20.5-3.4C158.1,309.2,157.9,309.6,158.2,309.7L158.2,309.7
				z"/>
		</g>
	</g>
	<g>
		<g>
			<path class="st0" d="M159.5,305.2c6.3,2.7,14,2.8,20.7,2.8c5.8,0,14,0.9,19.1-2.5c0.3-0.2,0.1-0.6-0.2-0.5c-3.2,1-6.1,1.8-9.5,2
				c-3.1,0.2-6.3,0.2-9.4,0.2c-7.1,0-13.7-0.9-20.6-2.4C159.5,304.7,159.3,305,159.5,305.2L159.5,305.2z"/>
		</g>
	</g>
	<g>
		<g>
			<path class="st0" d="M159.2,300.4c6.5,2.4,13.8,3.1,20.7,2.9c6.6-0.2,13.7-1.2,19.8-3.8c0.5-0.2,0.1-1-0.4-0.8
				c-6.6,1.7-13,3.4-19.9,3.6c-6.9,0.2-13.5-0.9-20.2-2.3C159.1,300,159,300.3,159.2,300.4L159.2,300.4z"/>
		</g>
	</g>
	<g>
		<g>
			<path class="st0" d="M159.4,295.1c6.4,2.4,14,3,20.7,2.9c6.4-0.1,14-0.5,19.9-3c0.4-0.2,0.1-0.6-0.3-0.6
				c-3.2,0.4-6.4,1.4-9.6,1.9c-3.5,0.5-7,0.8-10.5,0.8c-6.9,0-13.4-1.3-20.2-2.4C159.2,294.7,159.1,295,159.4,295.1L159.4,295.1z"/>
		</g>
	</g>
	<g>
		<g>
			<path class="st0" d="M159.3,289.7c5.1,4,13.3,3.5,19.3,3.6c3.9,0.1,7.9,0.1,11.8-0.3c3.1-0.3,6.7-0.8,9.3-2.6
				c0.2-0.2,0.1-0.5-0.2-0.5c-3.4,0.7-6.4,1.9-10,2.2c-3.3,0.3-6.6,0.3-9.9,0.2c-7-0.1-13.6-0.1-20.1-3
				C159.3,289.3,159.1,289.6,159.3,289.7L159.3,289.7z"/>
		</g>
	</g>
	<g>
		<g>
			<path class="st0" d="M159.4,285.3c6.5,2.6,13.8,3.5,20.8,3.4c3.3-0.1,6.5-0.4,9.7-0.9c3.3-0.6,7.3-1.2,10.2-3
				c0.2-0.1,0.1-0.4-0.2-0.4c-3.1,0.5-6.2,1.8-9.3,2.4c-3.6,0.7-7.2,1.1-10.8,1.1c-7,0.1-13.5-1.2-20.2-3.1
				C159.2,284.7,159.1,285.2,159.4,285.3L159.4,285.3z"/>
		</g>
	</g>
	<g>
		<g>
			<path class="st0" d="M159.6,281.3c6.4,1.9,13.5,2.4,20.2,2.5c6.8,0,13.6-0.7,20.2-2.2c0.5-0.1,0.3-0.9-0.2-0.8
				c-6.6,1.3-13.2,2.1-20,2.2c-6.8,0-13.3-1.1-20-2.1C159.4,280.8,159.3,281.2,159.6,281.3L159.6,281.3z"/>
		</g>
	</g>
	<g>
		<g>
			<path class="st0" d="M159.7,275.4c4.3,4.3,12.4,3.5,18,3.7c7.6,0.2,15.8,0.2,23-2.6c0.5-0.2,0.3-0.9-0.2-0.8
				c-6.9,1.8-13.7,2.6-20.9,2.5c-3.3,0-6.7-0.2-10-0.3c-3.4-0.2-6.7-0.6-9.5-2.8C159.8,274.9,159.5,275.2,159.7,275.4L159.7,275.4z"
				/>
		</g>
	</g>
	<g>
		<g>
			<path class="st0" d="M159.6,271.7c2.9,1.4,6,1.8,9.2,2.1c3.7,0.3,7.5,0.5,11.2,0.5c6.4,0.1,14.6-0.1,20.2-3.6
				c0.3-0.2,0.1-0.6-0.2-0.5c-3.2,0.8-6.1,2-9.4,2.5c-3.5,0.6-7.1,0.7-10.6,0.7c-6.6,0-14,0.3-20.3-2.1
				C159.5,271.3,159.4,271.6,159.6,271.7L159.6,271.7z"/>
		</g>
	</g>
	<g>
		<g>
			<path class="st0" d="M159.6,266.7c7.3,2.6,15.3,2.9,23,2.8c5.7,0,13.5,0.8,18-3.4c0.3-0.2-0.1-0.7-0.4-0.5
				c-5.6,3.6-12.6,3-19,3.1c-7.3,0-14.4-0.6-21.4-2.5C159.4,266.1,159.3,266.6,159.6,266.7L159.6,266.7z"/>
		</g>
	</g>
	<g>
		<g>
			<path class="st0" d="M159.2,262c7.2,2.3,15.2,3,22.7,3.2c5.7,0.1,14,0.6,18.6-3.5c0.3-0.2-0.1-0.6-0.3-0.4
				c-3.4,1.4-6.3,2.5-10,2.9c-3.2,0.3-6.4,0.3-9.7,0.2c-7.2-0.2-14.1-1.5-21.2-2.8C159,261.5,158.9,261.9,159.2,262L159.2,262z"/>
		</g>
	</g>
	<g>
		<g>
			<path class="st0" d="M160,257.1c6,3.2,13.6,3.3,20.2,3.3c6.5,0,13.6,0.5,19.5-2.6c0.5-0.3,0.1-1-0.4-0.7
				c-6.2,2.8-12.9,2.6-19.5,2.5c-6.8,0-13.1-1-19.6-2.8C159.9,256.7,159.8,257,160,257.1L160,257.1z"/>
		</g>
	</g>
	<g>
		<g>
			<path class="st0" d="M159.5,253c6.8,2.3,14.5,2.2,21.6,1.9c3.6-0.2,7.3-0.4,10.9-0.7c2.6-0.3,5.5-0.7,7.6-2.4
				c0.2-0.2,0-0.6-0.3-0.5c-6.1,2.5-12.6,2.6-19.1,2.9c-7,0.3-13.7-0.3-20.6-1.5C159.4,252.6,159.3,252.9,159.5,253L159.5,253z"/>
		</g>
	</g>
	<g>
		<g>
			<path class="st0" d="M160.3,248c2.1,1.6,4.7,2.2,7.3,2.4c4,0.3,8.2,0.1,12.2,0.1c6.8,0,15.1,1,21.4-2.4c0.4-0.2,0.1-0.9-0.3-0.7
				c-6.4,2.7-13.3,2.2-20.1,2.3c-6.4,0-14.4,1.4-20.2-2.1C160.3,247.4,160,247.8,160.3,248L160.3,248z"/>
		</g>
	</g>
	<g>
		<g>
			<path class="st0" d="M159.8,242.9c2,2,5,2.6,7.7,3c3.6,0.5,7.3,0.8,10.9,0.9c6.7,0.3,14.6,1,20.8-2c0.4-0.2,0.1-0.9-0.3-0.7
				c-6.3,2.3-12.9,2.2-19.5,1.9c-6.5-0.2-13.6-0.2-19.3-3.6C159.8,242.3,159.6,242.7,159.8,242.9L159.8,242.9z"/>
		</g>
	</g>
	<g>
		<g>
			<path class="st0" d="M159.4,238.5c4,4.3,12,3.6,17.3,3.8c7.4,0.3,14.8,0.2,22-1.7c0.5-0.1,0.3-0.9-0.2-0.8
				c-6.7,1.8-13.5,2-20.4,1.8c-6.1-0.2-13.3,0.3-18.4-3.5C159.4,238,159.2,238.3,159.4,238.5L159.4,238.5z"/>
		</g>
	</g>
	<g>
		<g>
			<path class="st0" d="M159.8,235.5c6.1,2.6,13.3,2.6,19.8,2.8c6.9,0.2,14.2,0.5,20.7-2.2c0.4-0.2,0.3-0.8-0.2-0.7
				c-3.5,0.8-6.9,1.7-10.6,2c-3.1,0.2-6.3,0.1-9.5,0.1c-6.9-0.2-13.4-1-20.1-2.4C159.7,235.1,159.5,235.4,159.8,235.5L159.8,235.5z"
				/>
		</g>
	</g>
	<g>
		<g>
			<path class="st0" d="M160.6,231.5c6.4,2.5,14.1,1.9,20.8,2.2c6.2,0.2,12.6,0.6,18.4-2c0.5-0.2,0.1-1-0.4-0.8
				c-6,2.6-12.5,2.1-18.9,1.9c-6.6-0.2-13.4,0-19.8-1.7C160.5,231,160.4,231.4,160.6,231.5L160.6,231.5z"/>
		</g>
	</g>
	<g>
		<g>
			<path class="st0" d="M160.1,227.8c6.6,1.3,13.5,1.9,20.2,2c6.7,0.1,13.5-0.4,19.9-2.5c0.5-0.2,0.3-0.9-0.2-0.8
				c-6.6,1.9-13.2,2.7-20.1,2.5c-6.6-0.1-13.1-1.3-19.7-1.7C159.9,227.3,159.9,227.8,160.1,227.8L160.1,227.8z"/>
		</g>
	</g>
	<g>
		<g>
			<path class="st0" d="M280.2,365.1c-0.1,3.8-0.1,7.5-0.1,11.3c0,1.8-0.1,3.6,0,5.4c0,0.7,0.3,1.6,0.2,2.3c0,0.2,0.3,0.2,0.4,0.1
				c0.4-0.6,0.3-1,0.3-1.7c-0.1-1.7-0.1-3.4-0.1-5.1c0-4.1-0.1-8.2-0.1-12.3C280.7,364.8,280.2,364.8,280.2,365.1L280.2,365.1z"/>
		</g>
	</g>
	<g>
		<g>
			<path class="st0" d="M275.2,358.6c0.5,4.5,0.8,9.1,0.9,13.7c0.1,4.6-0.4,9.2-0.2,13.7c0,0.4,0.6,0.5,0.7,0.1
				c0.9-4.5,0.6-9.3,0.5-13.8c-0.1-4.6-0.6-9.2-1.3-13.8C275.7,358.3,275.2,358.3,275.2,358.6L275.2,358.6z"/>
		</g>
	</g>
	<g>
		<g>
			<path class="st0" d="M271.4,352.8c0,6,0.2,12,0.4,18c0.1,2.8,0.2,5.6,0.2,8.4c0,2.9-0.4,5.6-0.6,8.5c0,0.3,0.4,0.3,0.5,0.1
				c2-4.9,0.9-11.4,0.7-16.5c-0.2-6.2-0.4-12.3-0.8-18.5C271.9,352.5,271.4,352.5,271.4,352.8L271.4,352.8z"/>
		</g>
	</g>
	<g>
		<g>
			<path class="st0" d="M266.4,349c0.2,6.7,0.7,13.3,0.9,20c0.1,3.2,0.1,6.5,0.2,9.8c0,3.1-0.3,6.3,0.2,9.3c0,0.2,0.4,0.2,0.4,0
				c0.5-2.9,0.3-5.9,0.3-8.8c0-3.4-0.1-6.8-0.2-10.2c-0.2-6.7-0.5-13.4-1.3-20C266.8,348.7,266.4,348.7,266.4,349L266.4,349z"/>
		</g>
	</g>
	<g>
		<g>
			<path class="st0" d="M262,343.7c-0.2,7.5-0.2,15.1-0.2,22.6c0,7.5-0.6,15.2,0.1,22.6c0,0.4,0.6,0.4,0.6,0
				c0.7-7.4,0.1-15.2,0.1-22.6c0-7.5,0-15.1-0.2-22.6C262.5,343.4,262,343.4,262,343.7L262,343.7z"/>
		</g>
	</g>
	<g>
		<g>
			<path class="st0" d="M256.9,340.6c0.1,8.5,0.3,17.1,0.5,25.6c0.1,4.3,0.2,8.5,0.4,12.8c0.1,3.9,0,8,0.5,11.9
				c0,0.3,0.5,0.2,0.5-0.1c0.4-4.2-0.1-8.6-0.2-12.8c-0.1-4.1-0.2-8.2-0.4-12.3c-0.3-8.4-0.5-16.8-0.9-25.1
				C257.3,340.3,256.9,340.3,256.9,340.6L256.9,340.6z"/>
		</g>
	</g>
	<g>
		<g>
			<path class="st0" d="M253.6,340.3c-1.2,8.5-1.6,17.3-1.8,25.9c-0.2,8.5-0.7,17.5,0.5,26c0,0.3,0.5,0.2,0.5-0.1
				c0.2-4.2-0.2-8.5-0.2-12.7c-0.1-4.4,0-8.8,0.1-13.2c0.2-8.6,1-17.2,1.4-25.8C254,340.1,253.7,340,253.6,340.3L253.6,340.3z"/>
		</g>
	</g>
	<g>
		<g>
			<path class="st0" d="M247.5,338.9c-0.1,17.5-0.7,35-0.1,52.5c0,0.4,0.6,0.4,0.6,0c0.6-17.4,0.1-35-0.1-52.5
				C248,338.5,247.5,338.5,247.5,338.9L247.5,338.9z"/>
		</g>
	</g>
	<g>
		<g>
			<path class="st0" d="M241.4,339.1c0.1,9.1,0.2,18.2,0.3,27.3c0,4.5,0,8.9,0.1,13.4c0,4.6-0.3,9.3,0.2,13.9c0,0.4,0.6,0.4,0.6,0
				c0.4-4.6,0.1-9.3,0.1-13.9c0-4.5-0.1-8.9-0.1-13.4c-0.1-9.1-0.3-18.2-0.5-27.3C241.9,338.8,241.4,338.8,241.4,339.1L241.4,339.1z
				"/>
		</g>
	</g>
	<g>
		<g>
			<path class="st0" d="M236.3,337c-0.7,9.6-1,19.2-1.1,28.7c-0.1,9.5-0.6,19.3,0.3,28.8c0,0.4,0.6,0.4,0.6,0
				c0.4-9.5-0.2-19.2-0.1-28.8c0.1-9.6,0.5-19.2,0.7-28.7C236.9,336.6,236.4,336.6,236.3,337L236.3,337z"/>
		</g>
	</g>
	<g>
		<g>
			<path class="st0" d="M228.7,340.1c0.4,9.5,0.9,19.1,1.2,28.6c0.3,9.5,0.2,19.1,0.6,28.7c0,0.5,0.8,0.5,0.8,0
				c0.3-9.5-0.1-19.1-0.5-28.7c-0.4-9.5-0.8-19.1-1.6-28.6C229.2,339.7,228.7,339.7,228.7,340.1L228.7,340.1z"/>
		</g>
	</g>
	<g>
		<g>
			<path class="st0" d="M223.9,343.9c0.3,9.3,0.7,18.6,1,27.9c0.3,9.3,0.3,18.6,0.9,27.9c0,0.5,0.7,0.5,0.8,0
				c0.1-9.3-0.4-18.6-0.8-27.9c-0.4-9.3-0.7-18.6-1.4-27.9C224.4,343.6,223.9,343.6,223.9,343.9L223.9,343.9z"/>
		</g>
	</g>
	<g>
		<g>
			<path class="st0" d="M220,348.2c-0.9,8.3-1.3,16.6-1.3,24.9c0,4.1,0.1,8.2,0.3,12.2c0.2,3.9,0.2,8,1,11.8
				c0.1,0.3,0.5,0.2,0.5-0.1c0.1-4-0.5-8.2-0.7-12.2c-0.2-4.1-0.3-8.1-0.3-12.2c0-8.2,0.4-16.3,0.9-24.4
				C220.4,348,220,348,220,348.2L220,348.2z"/>
		</g>
	</g>
	<g>
		<g>
			<path class="st0" d="M223.8,401.1c6.2,2.9,12.4,5.6,18.6,8.5c5.9,2.7,11.8,5.8,17.9,8.1c0.3,0.1,0.5-0.4,0.2-0.5
				c-5.9-3.3-12.4-5.8-18.6-8.6c-6-2.7-11.9-5.3-18-7.8C223.7,400.7,223.6,401,223.8,401.1L223.8,401.1z"/>
		</g>
	</g>
	<g>
		<g>
			<path class="st0" d="M242.8,395.8c5.1,2.9,10.4,5.6,15.7,8.1c5,2.4,10.1,5.1,15.4,6.9c0.3,0.1,0.5-0.4,0.2-0.5
				c-5-2.7-10.4-4.8-15.6-7.2c-5.2-2.4-10.3-5-15.4-7.7C242.8,395.2,242.5,395.6,242.8,395.8L242.8,395.8z"/>
		</g>
	</g>
	<g>
		<g>
			<path class="st0" d="M259.1,391.2c8,3.5,16.3,7.2,24.7,9.8c0.3,0.1,0.6-0.4,0.2-0.6c-7.9-3.8-16.6-6.3-24.8-9.5
				C259,390.8,258.9,391.2,259.1,391.2L259.1,391.2z"/>
		</g>
	</g>
	<g>
		<g>
			<path class="st0" d="M341.5,392.5c8.8,2.6,17.7,5.3,26.4,8.1c8.8,2.8,17.5,5.9,26.3,8.6c0.5,0.2,0.7-0.6,0.2-0.8
				c-17.2-6.5-35.1-11.5-52.7-16.6C341.2,391.6,341,392.3,341.5,392.5L341.5,392.5z"/>
		</g>
	</g>
	<g>
		<g>
			<path class="st0" d="M344.2,406.6c6.4,2.4,12.8,4.8,19.2,7.3c6.4,2.4,12.7,5.3,19.3,7.1c0.4,0.1,0.6-0.4,0.3-0.6
				c-6-2.9-12.6-4.9-18.8-7.2c-6.6-2.5-13.1-4.9-19.7-7.4C343.9,405.5,343.6,406.4,344.2,406.6L344.2,406.6z"/>
		</g>
	</g>
	<g>
		<g>
			<path class="st0" d="M279.1,386.1c2.1,0.2,3.9,0.7,5.9,1.6c0.2,0.1,0.4-0.1,0.2-0.3c-1.7-1.3-4-2-6.1-1.6
				C278.9,385.8,278.9,386.1,279.1,386.1L279.1,386.1z"/>
		</g>
	</g>
	<g>
		<g>
			<path class="st0" d="M344.9,386c0.2-3.2,0.1-6.5,0.1-9.7c0-3.2,0.3-6.5-0.1-9.7c0-0.2-0.3-0.2-0.4,0c-0.4,3.2-0.1,6.5-0.1,9.7
				c0,3.2-0.1,6.5,0.1,9.7C344.5,386.2,344.9,386.2,344.9,386L344.9,386z"/>
		</g>
	</g>
	<g>
		<g>
			<path class="st0" d="M349.8,387.2c0.2-5.1-0.2-10.2-0.2-15.3c-0.1-5.1,0.2-10.2-0.1-15.3c0-0.3-0.4-0.3-0.5,0
				c-0.4,5.1-0.1,10.2-0.1,15.3c0.1,5.1,0,10.3,0.6,15.3C349.5,387.4,349.7,387.4,349.8,387.2L349.8,387.2z"/>
		</g>
	</g>
	<g>
		<g>
			<path class="st0" d="M356,389.2c-0.1-6.4-0.5-12.7-0.7-19.1c-0.2-6.3,0.3-12.9-0.5-19.1c0-0.2-0.3-0.2-0.3,0
				c-0.7,6.2,0,12.8,0.2,19.1c0.2,6.3,0.4,12.7,1,19.1C355.7,389.4,356,389.4,356,389.2L356,389.2z"/>
		</g>
	</g>
	<g>
		<g>
			<path class="st0" d="M361.3,390.8c0.3-7.5,0.2-15,0.2-22.5c0-7.4,0.5-15-0.1-22.5c0-0.3-0.4-0.3-0.5,0c-0.6,7.4-0.1,15-0.1,22.5
				c0,7.5-0.1,15,0.2,22.5C361,390.9,361.3,390.9,361.3,390.8L361.3,390.8z"/>
		</g>
	</g>
	<g>
		<g>
			<path class="st0" d="M366.7,392.4c0.1-8.2,0.1-16.4,0.3-24.7c0.2-8.2,0.9-16.5,0.7-24.6c0-0.3-0.5-0.3-0.5,0
				c-0.9,8.1-0.7,16.5-0.8,24.6c-0.1,8.2-0.1,16.4,0.1,24.7C366.4,392.5,366.7,392.5,366.7,392.4L366.7,392.4z"/>
		</g>
	</g>
	<g>
		<g>
			<path class="st0" d="M371.1,392.7c0.6-8.7,0.3-17.5,0.6-26.2c0.3-8.7,0.9-17.5,1.1-26.2c0-0.4-0.6-0.4-0.6,0
				c-0.7,8.7-0.9,17.5-1.1,26.2c-0.2,8.7-0.7,17.5-0.3,26.2C370.8,393,371.1,393,371.1,392.7L371.1,392.7z"/>
		</g>
	</g>
	<g>
		<g>
			<path class="st0" d="M377.4,395.1c0.5-9.4,0.1-18.8,0.1-28.2c0-9.4,0.6-18.9,0.1-28.2c0-0.4-0.6-0.4-0.6,0
				c-0.7,9.3-0.2,18.9-0.2,28.2c0,9.4-0.3,18.9,0.3,28.2C377.2,395.3,377.4,395.3,377.4,395.1L377.4,395.1z"/>
		</g>
	</g>
	<g>
		<g>
			<path class="st0" d="M382.7,396.3c0.5-9.6,0.3-19.4,0.4-29c0.1-9.6,0.7-19.4,0.1-29c0-0.2-0.3-0.2-0.4,0
				c-0.8,9.6-0.3,19.4-0.4,29c0,9.7-0.4,19.4,0,29C382.4,396.5,382.7,396.5,382.7,396.3L382.7,396.3z"/>
		</g>
	</g>
	<g>
		<g>
			<path class="st0" d="M388.2,397.1c0.8-9.6,0.5-19.5,0.5-29.1c0-4.8-0.1-9.5-0.2-14.3c-0.1-4.6,0.1-9.3-0.5-13.9
				c0-0.3-0.4-0.2-0.4,0.1c-0.4,4.9,0.2,9.9,0.3,14.8c0.1,4.6,0.2,9.2,0.2,13.8c0.1,9.5-0.4,19.1-0.1,28.6
				C387.9,397.3,388.2,397.3,388.2,397.1L388.2,397.1z"/>
		</g>
	</g>
	<g>
		<g>
			<path class="st0" d="M394.6,399.5c0.5-9.4,0.6-18.8,0.5-28.2c-0.1-9.3,0-19-1.2-28.2c0-0.4-0.6-0.4-0.6,0c0,9.4,1,18.8,1.1,28.2
				c0.2,9.4,0,18.8-0.2,28.2C394.2,399.7,394.6,399.7,394.6,399.5L394.6,399.5z"/>
		</g>
	</g>
	<g>
		<g>
			<path class="st0" d="M399.5,400.7c1.3-8.3,1.6-16.8,1.8-25.1c0.2-8.6,0.6-17.6-0.5-26.1c0-0.4-0.6-0.4-0.6,0
				c-0.1,8.5,0.6,17.1,0.4,25.6c-0.2,8.6-1.1,17.1-1.5,25.6C399.1,400.9,399.5,400.9,399.5,400.7L399.5,400.7z"/>
		</g>
	</g>
	<g>
		<g>
			<path class="st0" d="M405,393.1c0.6-5.7,0.8-11.4,1-17.2c0.2-5.3,0.8-11,0-16.3c0-0.2-0.4-0.1-0.4,0.1
				c-0.7,5.4-0.1,11.2-0.3,16.7c-0.1,5.6-0.5,11.1-0.7,16.7C404.8,393.3,405,393.3,405,393.1L405,393.1z"/>
		</g>
	</g>
	<g>
		<g>
			<path class="st0" d="M73.5,193.3c-0.2,4.5-0.5,9-0.4,13.5c0,0.2,0.3,0.2,0.3,0c0.9-4.3,0.9-9.2,0.4-13.5
				C73.8,193.1,73.5,193,73.5,193.3L73.5,193.3z"/>
		</g>
	</g>
	<g>
		<g>
			<path class="st0" d="M79,194.8c-0.2,3.8-0.4,7.7-0.1,11.5c0,0.4,0.5,0.4,0.6,0c0.3-3.8,0.1-7.7-0.1-11.5
				C79.4,194.6,79,194.6,79,194.8L79,194.8z"/>
		</g>
	</g>
	<g>
		<g>
			<path class="st0" d="M87.6,197.6c0.3,4,0,8,0.4,11.9c0,0.3,0.5,0.3,0.5,0c0.5-3.9,0-8-0.4-11.9C88,197.3,87.6,197.3,87.6,197.6
				L87.6,197.6z"/>
		</g>
	</g>
	<g>
		<g>
			<path class="st0" d="M96.8,198.8c0.1,3.8,0.1,7.7,0.5,11.5c0,0.3,0.4,0.3,0.5,0c0.4-3.8,0.1-7.8-0.5-11.6
				C97.2,198.5,96.8,198.6,96.8,198.8L96.8,198.8z"/>
		</g>
	</g>
	<g>
		<g>
			<path class="st0" d="M106.4,200.8c-0.2,3.5-0.3,7.2,0,10.7c0,0.3,0.4,0.3,0.5,0c0.3-3.5,0.2-7.2,0-10.7
				C106.9,200.5,106.4,200.5,106.4,200.8L106.4,200.8z"/>
		</g>
	</g>
	<g>
		<g>
			<path class="st0" d="M117.5,200.8c0.1,4.7-0.3,9.7,0.6,14.4c0,0.2,0.4,0.1,0.4-0.1c0.5-4.6-0.2-9.7-0.5-14.3
				C118,200.5,117.5,200.5,117.5,200.8L117.5,200.8z"/>
		</g>
	</g>
	<g>
		<g>
			<path class="st0" d="M128.2,204.4c0.4,3.8,0.2,7.7,0.5,11.5c0,0.2,0.4,0.3,0.4,0.1c0.6-3.8,0.1-7.8-0.4-11.6
				C128.7,204,128.1,204,128.2,204.4L128.2,204.4z"/>
		</g>
	</g>
	<g>
		<g>
			<path class="st0" d="M139.7,206.4c-0.3,4.9-0.4,9.9,0.5,14.8c0.1,0.3,0.5,0.2,0.5-0.1c0.1-4.9-0.3-9.8-0.3-14.7
				C140.4,205.9,139.7,206,139.7,206.4L139.7,206.4z"/>
		</g>
	</g>
	<g>
		<g>
			<path class="st0" d="M152.1,206.8c0.2,5.2,0.1,10.5,0.9,15.6c0,0.3,0.5,0.2,0.6-0.1c0.2-5.1-0.5-10.4-0.9-15.5
				C152.6,206.4,152.1,206.4,152.1,206.8L152.1,206.8z"/>
		</g>
	</g>
	<g>
		<g>
			<path class="st0" d="M164,209.9c-0.1,4.5-0.3,9,0,13.5c0,0.4,0.6,0.4,0.6,0c0.3-4.5,0.1-9,0-13.5
				C164.5,209.6,164,209.6,164,209.9L164,209.9z"/>
		</g>
	</g>
	<g>
		<g>
			<path class="st0" d="M147.4,436.9c-0.2,3.9-0.5,8.1,0.3,12c0,0.2,0.4,0.2,0.4-0.1c0.1-4-0.3-8-0.2-11.9
				C147.9,436.5,147.4,436.5,147.4,436.9L147.4,436.9z"/>
		</g>
	</g>
	<g>
		<g>
			<path class="st0" d="M153.4,439.6c0.1,2.8-0.3,5.6-0.2,8.3c0,0.3,0.4,0.3,0.5,0.1c0.8-2.6,0.6-5.7,0.3-8.4
				C153.9,439.3,153.4,439.3,153.4,439.6L153.4,439.6z"/>
		</g>
	</g>
	<g>
		<g>
			<path class="st0" d="M159.2,442.4c-0.2,3-0.7,6.1-0.5,9.1c0,0.3,0.4,0.4,0.5,0.1c0.6-3,0.4-6.2,0.5-9.2
				C159.8,442.1,159.3,442.1,159.2,442.4L159.2,442.4z"/>
		</g>
	</g>
	<g>
		<g>
			<path class="st0" d="M166.3,444.4c0.2,3.2,0.4,6.4,1,9.6c0,0.3,0.4,0.2,0.4-0.1c0-3.2-0.4-6.4-0.8-9.5
				C166.8,444,166.2,444,166.3,444.4L166.3,444.4z"/>
		</g>
	</g>
	<g>
		<g>
			<path class="st0" d="M174.3,447.6c-0.1,2.8-0.3,5.6,0,8.3c0,0.3,0.4,0.3,0.5,0c0.3-2.8,0.1-5.6,0-8.3
				C174.8,447.2,174.3,447.2,174.3,447.6L174.3,447.6z"/>
		</g>
	</g>
	<g>
		<g>
			<path class="st0" d="M182.2,451.2c-0.1,2.6-0.3,5.5,0.5,8c0.1,0.3,0.5,0.2,0.5-0.1c0.1-2.6-0.4-5.3-0.4-7.9
				C182.8,450.8,182.3,450.8,182.2,451.2L182.2,451.2z"/>
		</g>
	</g>
	<g>
		<g>
			<path class="st0" d="M189.3,453.6c0.2,2.4,0.3,4.9,0.9,7.2c0.1,0.3,0.6,0.3,0.6-0.1c0-2.4-0.5-4.9-0.9-7.2
				C189.9,453.1,189.3,453.2,189.3,453.6L189.3,453.6z"/>
		</g>
	</g>
	<g>
		<g>
			<path class="st0" d="M198.1,455.5c-0.1,2.9-0.3,5.9,0.1,8.7c0,0.3,0.4,0.3,0.4,0c0.4-2.9,0.2-5.9,0.1-8.7
				C198.7,455.2,198.2,455.2,198.1,455.5L198.1,455.5z"/>
		</g>
	</g>
	<g>
		<g>
			<path class="st0" d="M206.1,457.5c0,2.6-0.2,5.3,0,7.9c0,0.3,0.5,0.3,0.5,0c0.3-2.6,0.1-5.3,0-7.9
				C206.7,457.1,206.1,457.1,206.1,457.5L206.1,457.5z"/>
		</g>
	</g>
	<g>
		<g>
			<path class="st0" d="M214.8,460.3c0.1,3.2,0.1,6.4,0.6,9.6c0,0.2,0.4,0.2,0.4-0.1c0.2-3.2-0.2-6.4-0.4-9.5
				C215.4,459.9,214.8,459.9,214.8,460.3L214.8,460.3z"/>
		</g>
	</g>
	<g>
		<g>
			<path class="st0" d="M224,465.5c0.3,3.2,0.3,6.3,0.4,9.5c0,0.3,0.5,0.4,0.5,0.1c0.5-3.2,0.2-6.5-0.4-9.7
				C224.5,465.1,223.9,465.2,224,465.5L224,465.5z"/>
		</g>
	</g>
	<g>
		<g>
			<path class="st0" d="M232.4,470.3c0.5,2.1,0.5,4.2,0.7,6.3c0,0.3,0.4,0.3,0.5,0c0.3-2.1-0.2-4.4-0.7-6.5
				C232.9,469.8,232.3,469.9,232.4,470.3L232.4,470.3z"/>
		</g>
	</g>
	<g>
		<g>
			<path class="st0" d="M239.4,471.8c-0.4,2.8-0.8,6-0.2,8.9c0.1,0.2,0.4,0.2,0.4-0.1c0.3-2.9,0-5.9,0.2-8.8
				C239.8,471.6,239.4,471.5,239.4,471.8L239.4,471.8z"/>
		</g>
	</g>
	<g>
		<g>
			<path class="st0" d="M245.5,474.2c-0.1,2.7-0.7,5.2-0.9,7.9c0,0.2,0.3,0.3,0.4,0.1c1.2-2.4,1.3-5.4,1.1-8
				C246,473.9,245.5,473.9,245.5,474.2L245.5,474.2z"/>
		</g>
	</g>
	<g>
		<g>
			<path class="st0" d="M254.2,476.9c-0.7,2.9-1.3,6.3-0.7,9.3c0.1,0.3,0.5,0.2,0.5-0.1c0.4-3,0.3-6.1,0.7-9.1
				C254.7,476.7,254.2,476.6,254.2,476.9L254.2,476.9z"/>
		</g>
	</g>
	<g>
		<g>
			<path class="st0" d="M260.8,480.2c0,3.1-0.1,6.5,0.5,9.6c0.1,0.3,0.5,0.2,0.5-0.1c0.3-3.1-0.2-6.4-0.4-9.5
				C261.4,479.8,260.8,479.8,260.8,480.2L260.8,480.2z"/>
		</g>
	</g>
	<g>
		<g>
			<path class="st0" d="M229.9,59.6c-0.2,1.8,0,3.7,0,5.5c0.1,1.6,0,3.2,0.3,4.7c0.1,0.3,0.4,0.2,0.4-0.1c0.2-1.8,0-3.7-0.1-5.5
				c-0.1-1.6-0.1-3.2-0.4-4.7C230.1,59.4,229.9,59.5,229.9,59.6L229.9,59.6z"/>
		</g>
	</g>
	<g>
		<g>
			<path class="st0" d="M233.9,60.2c-0.5,2.8-0.6,6.2,0.7,8.8c0.1,0.2,0.5,0.1,0.4-0.1c-0.4-3-1-5.6-0.8-8.7
				C234.3,60,233.9,59.9,233.9,60.2L233.9,60.2z"/>
		</g>
	</g>
	<g>
		<g>
			<path class="st0" d="M240,61.4c-0.1,2.8-0.4,5.9,0.1,8.7c0,0.2,0.4,0.2,0.4,0c0.5-2.8,0.1-5.9,0.1-8.7
				C240.5,61.1,240,61.1,240,61.4L240,61.4z"/>
		</g>
	</g>
	<g>
		<g>
			<path class="st0" d="M246,63.2c-0.1,2.1-0.4,4.5,0,6.6c0,0.2,0.4,0.2,0.4,0c0.5-2.1,0.1-4.5,0-6.6C246.5,62.9,246,62.9,246,63.2
				L246,63.2z"/>
		</g>
	</g>
	<g>
		<g>
			<path class="st0" d="M251.3,62.9c0,2.9-0.2,6.1,0.4,9c0.1,0.3,0.5,0.2,0.6-0.1c0.4-2.9-0.2-6.1-0.4-8.9
				C251.7,62.6,251.3,62.6,251.3,62.9L251.3,62.9z"/>
		</g>
	</g>
	<g>
		<g>
			<path class="st0" d="M256.4,63.2c-0.4,3.1-0.6,6.9,0.2,9.9c0.1,0.3,0.4,0.2,0.5-0.1c0.4-3.2,0-6.7-0.1-9.8
				C257,62.8,256.4,62.8,256.4,63.2L256.4,63.2z"/>
		</g>
	</g>
	<g>
		<g>
			<path class="st0" d="M275.2,64.9c-0.8,2.7-0.9,6.1,0,8.8c0.1,0.3,0.5,0.2,0.5-0.1c0-1.4-0.2-2.9-0.2-4.3c0-1.4,0.1-2.9,0.2-4.3
				C275.8,64.7,275.3,64.7,275.2,64.9L275.2,64.9z"/>
		</g>
	</g>
	<g>
		<g>
			<path class="st0" d="M297.8,66.5c-0.1,3.1-0.3,6.4,0,9.5c0,0.3,0.5,0.3,0.5,0c0.3-3.1,0.1-6.4,0-9.5
				C298.3,66.1,297.8,66.1,297.8,66.5L297.8,66.5z"/>
		</g>
	</g>
	<g>
		<g>
			<path class="st0" d="M302.5,68.6c0.2,3,0.2,6.1,0.8,9c0.1,0.3,0.5,0.2,0.5-0.1c0.4-2.9-0.2-6.1-0.8-9
				C303,68.2,302.5,68.3,302.5,68.6L302.5,68.6z"/>
		</g>
	</g>
	<g>
		<g>
			<path class="st0" d="M308.9,68.6c0.2,2.6,0,5.6,0.6,8.1c0.1,0.2,0.4,0.2,0.5,0c0.5-2.6-0.1-5.6-0.4-8.1
				C309.5,68.1,308.9,68.1,308.9,68.6L308.9,68.6z"/>
		</g>
	</g>
	<g>
		<g>
			<path class="st0" d="M315.7,69.5c-0.1,3.1-0.3,6.2,0,9.2c0,0.3,0.5,0.3,0.5,0c0.4-3,0.2-6.2,0-9.2
				C316.2,69.1,315.7,69.1,315.7,69.5L315.7,69.5z"/>
		</g>
	</g>
	<g>
		<g>
			<path class="st0" d="M322.5,70.4c0.3,2.9,0.2,6.1,0.8,9c0,0.2,0.4,0.2,0.4,0c0.6-2.8,0-6.3-0.6-9.1C323,70,322.4,70,322.5,70.4
				L322.5,70.4z"/>
		</g>
	</g>
	<g>
		<g>
			<path class="st0" d="M338.4,68.1c0.2,3.3,0.3,6.7,0.9,10c0,0.2,0.4,0.2,0.4-0.1c0-3.3-0.5-6.6-0.9-9.9
				C338.8,67.8,338.3,67.8,338.4,68.1L338.4,68.1z"/>
		</g>
	</g>
	<g>
		<g>
			<path class="st0" d="M348.4,67.7c0,2.7-0.2,5.3-0.2,8c0,0.3,0.4,0.3,0.5,0.1c0.6-2.6,0.5-5.4,0.2-8
				C348.8,67.4,348.4,67.4,348.4,67.7L348.4,67.7z"/>
		</g>
	</g>
	<g>
		<g>
			<path class="st0" d="M358.4,66.5c-0.1,2.2-0.4,4.6,0,6.8c0,0.2,0.4,0.2,0.4,0c0.4-2.2,0.1-4.6,0-6.8
				C358.8,66.2,358.4,66.2,358.4,66.5L358.4,66.5z"/>
		</g>
	</g>
	<g>
		<g>
			<path class="st0" d="M368.7,64.5c-0.1,2.3-0.4,4.9,0,7.2c0,0.3,0.5,0.3,0.5,0c0.4-2.3,0.1-4.9,0-7.2
				C369.1,64.2,368.7,64.2,368.7,64.5L368.7,64.5z"/>
		</g>
	</g>
	<g>
		<g>
			<path class="st0" d="M380.6,61.7c0,3.2-0.2,6.9,0.5,10c0.1,0.3,0.5,0.2,0.6-0.1c0.4-3.2-0.2-6.8-0.5-9.9
				C381,61.4,380.6,61.4,380.6,61.7L380.6,61.7z"/>
		</g>
	</g>
	<g>
		<g>
			<path class="st0" d="M390.5,60.5c-0.2,3-0.5,6.3,0,9.2c0,0.2,0.4,0.2,0.5,0c0.5-2.9,0.2-6.2,0-9.2
				C391,60.2,390.6,60.2,390.5,60.5L390.5,60.5z"/>
		</g>
	</g>
	<g>
		<g>
			<path class="st0" d="M402.7,58c-0.4,3-0.8,6.3-0.3,9.3c0.1,0.3,0.6,0.2,0.6-0.1c0.1-3.1,0-6.1,0.2-9.2
				C403.3,57.8,402.7,57.7,402.7,58L402.7,58z"/>
		</g>
	</g>
	<g>
		<g>
			<path class="st0" d="M183.6,207.1c0.7,5.2,0.6,10.3,0.6,15.5c0,0.2,0.4,0.3,0.4,0.1c0.8-5.2,0.3-10.5-0.5-15.6
				C184.1,206.8,183.6,206.8,183.6,207.1L183.6,207.1z"/>
		</g>
	</g>
	<g>
		<g>
			<path class="st0" d="M197.3,203.6c0.2,4.5,0.3,9.1,1,13.6c0,0.3,0.5,0.2,0.5-0.1c0.1-4.5-0.5-9-1-13.5
				C197.8,203.3,197.3,203.2,197.3,203.6L197.3,203.6z"/>
		</g>
	</g>
	<g>
		<g>
			<path class="st0" d="M214.2,201.2c-0.4,5-0.7,10.1-0.1,15.1c0,0.3,0.5,0.4,0.6,0c0.3-5,0-10.1,0.1-15.1
				C214.8,200.8,214.3,200.8,214.2,201.2L214.2,201.2z"/>
		</g>
	</g>
	<g>
		<g>
			<path class="st0" d="M230.2,197.2c0.2,5,0,10.1,0.5,15.1c0,0.3,0.5,0.3,0.5,0c0.6-4.9,0-10.2-0.5-15.1
				C230.8,196.8,230.2,196.8,230.2,197.2L230.2,197.2z"/>
		</g>
	</g>
	<g>
		<g>
			<path class="st0" d="M248.3,194.8c-0.3,4.8-0.5,9.6,0.2,14.4c0,0.3,0.4,0.2,0.5-0.1c0.2-4.8-0.2-9.5-0.1-14.3
				C248.8,194.5,248.3,194.5,248.3,194.8L248.3,194.8z"/>
		</g>
	</g>
	<g>
		<g>
			<path class="st0" d="M262.8,193c0.8,3.5,1.1,7.1,1.8,10.7c0.1,0.3,0.6,0.2,0.6-0.1c0.1-3.6-0.8-7.3-1.8-10.8
				C263.3,192.4,262.7,192.6,262.8,193L262.8,193z"/>
		</g>
	</g>
	<g>
		<g>
			<path class="st0" d="M280.8,478.4c0.4,3.8,0.6,7.7,1.4,11.4c0.1,0.3,0.5,0.2,0.5-0.1c-0.1-3.8-0.9-7.6-1.4-11.3
				C281.1,478.2,280.7,478.1,280.8,478.4L280.8,478.4z"/>
		</g>
	</g>
	<g>
		<g>
			<path class="st0" d="M296.6,471.2c0.4,3.4,0.2,6.8,0.2,10.2c0,0.3,0.5,0.4,0.6,0.1c0.6-3.4,0.2-6.9-0.4-10.3
				C297,470.9,296.6,471,296.6,471.2L296.6,471.2z"/>
		</g>
	</g>
	<g>
		<g>
			<path class="st0" d="M315.1,463.5c-0.2,3.9-0.1,8.2,1.1,11.9c0.1,0.2,0.5,0.2,0.5-0.1c-0.4-4-1.2-7.9-1.3-11.9
				C315.4,463.3,315.1,463.3,315.1,463.5L315.1,463.5z"/>
		</g>
	</g>
	<g>
		<g>
			<path class="st0" d="M325,332.3c-0.1,6.9-0.4,13.9,0,20.9c0,0.4,0.5,0.4,0.5,0c0.4-6.9,0.1-13.9,0-20.9
				C325.4,332,325,332,325,332.3L325,332.3z"/>
		</g>
	</g>
	<g>
		<g>
			<path class="st0" d="M345.8,323.4c-0.1,5.5-0.5,11.2,0,16.7c0,0.3,0.4,0.3,0.5,0c0.5-5.5,0.1-11.2,0-16.7
				C346.3,323.1,345.8,323.1,345.8,323.4L345.8,323.4z"/>
		</g>
	</g>
	<g>
		<g>
			<path class="st0" d="M370.3,318.6c-0.1,3.8-0.3,7.6,0,11.3c0,0.3,0.4,0.3,0.4,0c0.3-3.7,0.2-7.6,0-11.3
				C370.7,318.3,370.3,318.3,370.3,318.6L370.3,318.6z"/>
		</g>
	</g>
	<g>
		<g>
			<path class="st0" d="M386.5,314.5c0.8,3.6,0.7,7.1,1,10.7c0,0.2,0.4,0.3,0.4,0.1c0.7-3.5-0.1-7.5-1-10.9
				C386.9,314.1,386.5,314.2,386.5,314.5L386.5,314.5z"/>
		</g>
	</g>
	<g>
		<g>
			<path class="st0" d="M412,306.1c-0.2,7.5-0.4,15.1,0,22.7c0,0.4,0.6,0.4,0.6,0c0.4-7.5,0.1-15.1,0-22.7
				C412.5,305.8,412,305.8,412,306.1L412,306.1z"/>
		</g>
	</g>
	<g>
		<g>
			<path class="st0" d="M332.3,471.9c0.8-8.3,0.6-16.9-0.6-25.1c0-0.2-0.4-0.1-0.3,0c0.5,8.4,0.6,16.6,0.5,25
				C331.9,472.2,332.3,472.1,332.3,471.9L332.3,471.9z"/>
		</g>
	</g>
	<g>
		<g>
			<path class="st0" d="M356.4,463.5c0.2-4.8,0.2-9.6,0-14.3c0-0.2-0.4-0.2-0.4,0c-0.2,4.8-0.1,9.6,0,14.3
				C356.1,463.7,356.3,463.7,356.4,463.5L356.4,463.5z"/>
		</g>
	</g>
	<g>
		<g>
			<path class="st0" d="M372.5,456.4c0.8-2.9,1-6,0.5-9c0-0.2-0.3-0.1-0.3,0c0.1,3-0.1,5.9-0.5,8.9
				C372.2,456.5,372.4,456.6,372.5,456.4L372.5,456.4z"/>
		</g>
	</g>
	<g>
		<g>
			<path class="st0" d="M390.9,448c0.4-2.8,0.3-5.7-0.5-8.4c-0.1-0.2-0.4-0.1-0.3,0.1c0.4,2.8,0.6,5.5,0.5,8.3
				C390.6,448.2,390.9,448.2,390.9,448L390.9,448z"/>
		</g>
	</g>
	<g>
		<g>
			<path class="st0" d="M409.5,440.2c0.1-2.8,0.1-5.6,0-8.3c0-0.2-0.3-0.2-0.4,0c-0.2,2.8-0.2,5.6,0,8.3
				C409.1,440.5,409.4,440.5,409.5,440.2L409.5,440.2z"/>
		</g>
	</g>
	<g>
		<g>
			<path class="st0" d="M423.2,434.3c0.1-2.6,0.2-5.2,0-7.7c0-0.3-0.4-0.3-0.4,0c-0.2,2.6-0.1,5.2,0,7.7
				C422.7,434.6,423.2,434.6,423.2,434.3L423.2,434.3z"/>
		</g>
	</g>
	<g>
		<g>
			<path class="st0" d="M208.6,423.5c0.2-5.5,0.2-11.2,0-16.7c0-0.2-0.3-0.2-0.4,0c-0.3,5.5-0.3,11.2,0,16.7
				C208.2,423.8,208.6,423.8,208.6,423.5L208.6,423.5z"/>
		</g>
	</g>
	<g>
		<g>
			<path class="st0" d="M225.2,429.5c0.8-2.1,1-4.5,0.6-6.6c0-0.2-0.4-0.2-0.4,0.1c0.1,2.2-0.2,4.3-0.5,6.5
				C224.9,429.6,225.1,429.7,225.2,429.5L225.2,429.5z"/>
		</g>
	</g>
	<g>
		<g>
			<path class="st0" d="M237.3,434.3c-0.2-2.1,0-3.9,0.4-5.9c0.1-0.3-0.3-0.3-0.4-0.1c-0.8,1.9-0.9,4.1-0.5,6.1
				C236.8,434.6,237.3,434.6,237.3,434.3L237.3,434.3z"/>
		</g>
	</g>
	<g>
		<g>
			<path class="st0" d="M256.8,441.5c1-2.1,1.5-4.4,1.2-6.7c0-0.2-0.4-0.2-0.4,0.1c0,2.2-0.3,4.4-1.2,6.4
				C256.3,441.6,256.7,441.8,256.8,441.5L256.8,441.5z"/>
		</g>
	</g>
	<g>
		<g>
			<path class="st0" d="M275.3,448.6c0.1-2,0.1-4,0-6c0-0.2-0.3-0.2-0.3,0c-0.2,2-0.1,4,0,6C275,448.8,275.3,448.8,275.3,448.6
				L275.3,448.6z"/>
		</g>
	</g>
	<g>
		<g>
			<path class="st0" d="M295,457.5c0.1-3.6,0.1-7.2-0.1-10.7c0-0.2-0.3-0.2-0.3,0c-0.2,3.6-0.2,7.2-0.1,10.7
				C294.6,457.8,295,457.8,295,457.5L295,457.5z"/>
		</g>
	</g>
	<g>
		<g>
			<path class="st0" d="M211.7,305.5c0,3.2-0.2,6.4,0,9.5c0,0.3,0.4,0.3,0.5,0c0.2-3.2,0-6.4,0-9.5
				C212.2,305.2,211.7,305.2,211.7,305.5L211.7,305.5z"/>
		</g>
	</g>
	<g>
		<g>
			<path class="st0" d="M230.1,309.7c0,1.6-0.1,3.2,0.1,4.8c0,0.3,0.4,0.3,0.5,0c0.2-1.6,0.1-3.2,0.1-4.8
				C230.7,309.3,230.1,309.3,230.1,309.7L230.1,309.7z"/>
		</g>
	</g>
	<g>
		<g>
			<path class="st0" d="M244.4,313.9c0,1.4-0.2,2.9,0,4.2c0,0.2,0.5,0.2,0.5,0c0.2-1.4,0.1-2.9,0-4.2
				C245,313.5,244.5,313.5,244.4,313.9L244.4,313.9z"/>
		</g>
	</g>
	<g>
		<g>
			<path class="st0" d="M264.2,317.4c-0.1,2-0.2,4,0,6c0,0.3,0.4,0.3,0.4,0c0.2-2,0.1-4,0-6C264.6,317.1,264.2,317.1,264.2,317.4
				L264.2,317.4z"/>
		</g>
	</g>
	<g>
		<g>
			<path class="st0" d="M286.7,324c0.1,1.8-0.1,3.5-0.5,5.3c-0.1,0.3,0.4,0.5,0.5,0.2c0.8-1.8,0.9-3.7,0.6-5.6
				C287.3,323.6,286.7,323.7,286.7,324L286.7,324z"/>
		</g>
	</g>
	<g>
		<g>
			<path class="st0" d="M302.2,329.4c0.2,4.8,0.2,9.6,0.8,14.3c0,0.4,0.6,0.4,0.6,0c0-4.8-0.4-9.6-0.7-14.3
				C302.8,329,302.2,329,302.2,329.4L302.2,329.4z"/>
		</g>
	</g>
	<g>
		<g>
			<g>
				<path class="st0" d="M68.5,192.7c-0.8,4.9-0.1,10.6,0.5,15.6c0.1,0.8,1.3,0.8,1.3,0c-0.3-5.1-0.2-10.6-1.2-15.6
					C69.1,192.5,68.6,192.4,68.5,192.7L68.5,192.7z"/>
			</g>
		</g>
		<g>
			<g>
				<g>
					<g>
						<path class="st0" d="M273.2,48.5c-10-3.9-19.6-13.2-14.9-24.9c4.9-12.2,21.3-8.3,31.3-6.1c9.6,2.1,23.6,9.7,16.7,21.6
							c-5.8,9.9-22,11.4-32.2,9.7c-0.6-0.1-1.1,0.8-0.5,1.1c5.8,2.5,14.2,0.9,20.3-0.6c6-1.5,11.7-4.8,14.5-10.5
							c6-12.2-7.2-20.4-17.4-22.6c-11-2.4-28.7-6.3-34.1,7.1c-4.8,11.9,4.9,23.2,16.2,26.2C273.6,49.5,273.8,48.7,273.2,48.5
							L273.2,48.5z"/>
					</g>
				</g>
				<g>
					<g>
						<path class="st0" d="M271.4,43.9c1.5,3,7.1,4.9,9.8,2.4c1.1-1,0.7-2.4-0.5-3.1c-0.9-0.5-2.4-0.4-3.4-0.4
							c-1.6,0-3.2-0.1-4.8-0.1c-0.8,0-0.8,1.2,0,1.2c1.4,0,2.8,0,4.2,0c0.6,0,1.5-0.1,2.1,0c0.9-0.1,1.4,0.3,1.6,1.5
							c-0.4,0.2-0.7,0.3-1.1,0.4c-2.7,0.6-5.1-0.7-7-2.4C271.7,43,271.2,43.4,271.4,43.9L271.4,43.9z"/>
					</g>
				</g>
				<g>
					<g>
						<path class="st0" d="M263.7,32.5c-2.6,2.2,1.8,4.9,3.8,5c2.6,0.1,6.6-1.8,6.6-4.8c0-0.3-0.4-0.4-0.6-0.2
							c-1.4,1.4-2.2,3-4.3,3.5c-1,0.3-2.1,0.2-3.1-0.1c-1.6-0.6-1.8-1.8-2-3.3C264,32.4,263.8,32.4,263.7,32.5L263.7,32.5z"/>
					</g>
				</g>
				<g>
					<g>
						<path class="st0" d="M285.7,33.8c-1.1,2.5,0.2,5.4,2.8,6.3c2.1,0.7,6.2-0.5,6.1-3.3c0-0.4-0.4-0.5-0.7-0.3
							c-1.5,1.3-2.5,3-4.9,2.3c-2.1-0.6-2.9-2.9-2.7-4.9C286.4,33.6,285.9,33.5,285.7,33.8L285.7,33.8z"/>
					</g>
				</g>
				<g>
					<g>
						<path class="st0" d="M276.7,14.4c-2.1,2-3.7,5.6-3.7,8.5c0,0.5,0.7,0.6,0.9,0.1c0.5-1.4,0.8-2.9,1.4-4.2
							c0.6-1.4,1.4-2.6,2.1-4C277.5,14.5,277,14.1,276.7,14.4L276.7,14.4z"/>
					</g>
				</g>
				<g>
					<g>
						<path class="st0" d="M284,15.5c-2.2,3.2-3.9,7.2-3.5,11.2c0,0.3,0.5,0.5,0.6,0.1c0.9-3.8,1.6-7.4,3.4-10.9
							C284.7,15.5,284.2,15.2,284,15.5L284,15.5z"/>
					</g>
				</g>
				<g>
					<g>
						<path class="st0" d="M290.3,18c-1.5,1.4-3,4.1-3,6.2c0,0.5,0.7,0.7,0.9,0.3c0.5-1,0.8-2.1,1.2-3.1c0.4-1,1-2,1.4-3
							C291,18,290.5,17.8,290.3,18L290.3,18z"/>
					</g>
				</g>
				<g>
					<g>
						<path class="st0" d="M271,15.3c-1.2-3-3.2-5.6-5.5-7.8c-1.3-1.2-4.3-4.5-6.4-3.3c-1.6,0.9-1.6,4.4-1.8,5.9
							c-0.5,3.5-0.4,7,1.2,10.2c0.4,0.7,1.4,0.1,1.1-0.6c-1-2.3-3-14.6,1.6-14c1.5,0.2,4,3.2,5.1,4.4c1.5,1.7,2.7,3.6,4,5.4
							C270.6,16,271.2,15.8,271,15.3L271,15.3z"/>
					</g>
				</g>
				<g>
					<g>
						<path class="st0" d="M265.5,15c-0.5-1.6-1.4-3-2.6-4.2c-1-1.1-2.5-2.5-4-2.7c-0.6-0.1-0.7,0.7-0.4,1c0.4,0.5,1,0.8,1.6,1.1
							c0.7,0.4,1.3,0.9,1.8,1.5c1.1,1.1,2,2.3,2.8,3.6C265,15.7,265.6,15.5,265.5,15L265.5,15z"/>
					</g>
				</g>
				<g>
					<g>
						<path class="st0" d="M296.9,19c3.4-3.3,6.9-5.8,11.6-7c-0.3-0.2-0.6-0.4-0.9-0.7c0.5,5.2-0.7,9.6-1.8,14.6
							c-0.1,0.4,0.5,0.7,0.7,0.3c2.6-4.2,2.9-10.1,2.4-14.9c0-0.4-0.4-0.8-0.9-0.7c-4.7,1.2-9.1,3.8-11.8,7.8
							C296,18.9,296.6,19.4,296.9,19L296.9,19z"/>
					</g>
				</g>
				<g>
					<g>
						<path class="st0" d="M302.9,21.5c0.8-1.5,1.6-2.8,2.8-4c1.3-1.1,2.8-1.7,4.1-2.6c0.2-0.2,0.1-0.5-0.1-0.6
							c-3.4-0.3-7,3.7-7.5,6.8C302.1,21.6,302.7,21.9,302.9,21.5L302.9,21.5z"/>
					</g>
				</g>
				<g>
					<g>
						<path class="st0" d="M266.5,45.8c-7.7,12.5,13.4,19.5,21.9,20.4c16.2,1.7,32.5-4.2,47-10.8c0.7-0.3,0.2-1.6-0.5-1.3
							c-11.6,4.3-22.9,9.4-35.4,10.5c-5.8,0.5-11.8,0.3-17.5-1.2c-7.4-1.9-19.2-7.5-14.7-17.2C267.4,45.8,266.8,45.4,266.5,45.8
							L266.5,45.8z"/>
					</g>
				</g>
				<g>
					<g>
						<path class="st0" d="M268.9,57.7c-6.8-0.2-11.8,11.4-7.4,16.5c1.9,2.2,4.8,1.4,6.9-0.1c3.8-2.8,3.7-7.9,7.3-10.8
							c0.4-0.3,0-1.1-0.5-0.9c-4.1,1.3-4,7.5-7,10.1c-1.6,1.7-3.6,1.8-6,0.3c-0.5-1.1-0.8-2.2-0.8-3.4c-0.1-2.1,0.4-4.1,1.4-5.9
							c1.5-2.8,3.6-3.9,6.3-5.2C269.4,58.2,269.2,57.8,268.9,57.7L268.9,57.7z"/>
					</g>
				</g>
				<g>
					<g>
						<path class="st0" d="M284.7,64.8c-5.2,2.5-6.5,13.9-0.1,15.9c3,0.9,6-0.5,7.8-3c1.1-1.5,1.6-3.2,2.1-4.9
							c0.7-2.5,1.5-4.4,3-6.5c0.2-0.3-0.1-0.8-0.5-0.6c-4.2,1.7-3.5,8-5.8,11.2c-2.9,4.1-9.3,3.3-9.5-2.3c-0.1-3.3,1.1-6.8,3.5-9.1
							C285.6,65.2,285.1,64.6,284.7,64.8L284.7,64.8z"/>
					</g>
				</g>
				<g>
					<g>
						<path class="st0" d="M309,30.5c11.5-3.9,22.8-9.2,35.4-8.3c6.5,0.5,13.1,3.4,15.9,9.6c3,6.7-0.3,13.8-4.4,19.1
							c-0.5,0.6,0.3,1.5,0.9,0.9c8.6-9.1,8.9-23.4-3.6-29.2c-6.3-2.9-13.5-2.4-20.2-1.2c-8.2,1.4-17.3,3.9-24.3,8.4
							C308.3,30,308.6,30.6,309,30.5L309,30.5z"/>
					</g>
				</g>
				<g>
					<g>
						<path class="st0" d="M323.1,63.6c3.1-4.3,11.6-4.2,16.3-4.4c4.5-0.3,9-0.2,13.5-0.4c7.8-0.4,16.2-1.4,22.7-6.1
							c4.1-3,7.3-8.3,4.9-13.4c-3-6.5-11.2-6.6-17.2-6.1c-1.2,0.1-1.2,1.9,0,1.8c3.9-0.2,8.2-0.7,11.8,1.2c5.7,2.9,5.4,9.6,1.1,13.7
							c-5.7,5.4-14.9,6.6-22.4,7.1c-6.5,0.4-13,0.3-19.4,1.1c-4.3,0.5-9.6,1-12.3,4.8C321.5,63.7,322.6,64.3,323.1,63.6L323.1,63.6z
							"/>
					</g>
				</g>
				<g>
					<g>
						<path class="st0" d="M326,66.6c-1,0.7-2,0.8-2.7-0.2c-0.5-0.8-0.6-1.9-0.2-2.7c0.4-0.8-0.8-1.4-1.1-0.7
							c-0.7,1.4-0.5,3.1,0.5,4.3c1.1,1.5,2.8,1.5,4.3,0.5C327.5,67.3,326.8,66.1,326,66.6L326,66.6z"/>
					</g>
				</g>
				<g>
					<g>
						<path class="st0" d="M359.8,26.6c9.9-0.9,25.1-0.6,28.9,10.9c3.3,9.9-3.7,19.1-12.2,23.4c-9,4.5-20.3,5-30.2,4.5
							c-7.1-0.4-14.3-3.8-20.4,1.3c-0.6,0.5,0.2,1.5,0.8,1c5.8-4.4,12.2-1.4,18.6-0.9c5.9,0.4,12.1,0.2,17.9-0.6
							c9.2-1.2,18.9-4.5,24.4-12.5c4.5-6.5,5.1-15.9-0.3-22.1c-6.5-7.3-18.9-7.9-27.6-5.5C359.6,26.3,359.6,26.7,359.8,26.6
							L359.8,26.6z"/>
					</g>
				</g>
				<g>
					<g>
						<path class="st0" d="M346.2,40.2c-5.1-3.1-13.9-0.7-16.8,4.5c-3.6,6.5,4.2,10.9,9.2,12.8c1,0.4,1.4-1.2,0.4-1.6
							c-4.8-1.8-13-6.6-7-12.4c4-3.8,8.9-3.4,13.8-2.7C346.3,41,346.6,40.5,346.2,40.2L346.2,40.2z"/>
					</g>
				</g>
				<g>
					<g>
						<path class="st0" d="M355.9,52.1c0.9,0.6,2.1,0.5,3,1.1c0.7,0.4,1,1.2,0.8,1.9c-0.2,0.7-1.1,1.2-1.8,1.4
							c-0.2,0.1-0.2,0.4,0,0.5c1.9,0.7,3.4-1.5,2.9-3.2c-0.6-2-3-2.5-4.8-2.5C355.6,51.3,355.6,51.9,355.9,52.1L355.9,52.1z"/>
					</g>
				</g>
			</g>
			<g>
				<g>
					<path class="st0" d="M238.1,71.4c-0.9,11.4,0.8,23.4,1,34.8c0.2,12.6-0.8,25.1-1.1,37.6c0,0.6,0.9,0.7,1,0.1
						c2.4-12.2,1.8-25.4,1.5-37.8c-0.3-11.4,0.1-23.6-1.8-34.9C238.7,71,238.1,71.1,238.1,71.4L238.1,71.4z"/>
				</g>
			</g>
			<g>
				<g>
					<path class="st0" d="M225.8,58.6c-0.5,1.8-0.5,3.7-0.5,5.6c0,1.9-0.1,3.8,0.3,5.6c0.1,0.5,0.9,0.5,1,0c0.3-1.8,0-3.8,0-5.6
						c0-1.9,0-3.7-0.4-5.6C226.2,58.4,225.8,58.4,225.8,58.6L225.8,58.6z"/>
				</g>
			</g>
			<g>
				<g>
					<path class="st0" d="M292.8,77c12.4,1.2,25.5,3.6,37.9,3.1c0.5,0,0.5-0.8,0-0.8c-12.6-0.7-25.3-2.4-37.9-3.6
						C291.9,75.6,292,76.9,292.8,77L292.8,77z"/>
				</g>
			</g>
			<g>
				<g>
					<path class="st0" d="M267.8,74.6c4.5,0.4,8.9,0.9,13.4,1.3c0.8,0.1,0.8-1.2,0-1.3c-4.5-0.4-8.9-0.8-13.4-1.3
						C267,73.3,267,74.5,267.8,74.6L267.8,74.6z"/>
				</g>
			</g>
			<g>
				<g>
					<path class="st0" d="M225.6,70c11.8,2.2,24.1,2.8,36,4c0.8,0.1,0.8-1.2,0-1.2c-11.9-1.1-24-1.7-35.9-3.4
						C225.3,69.3,225.1,69.9,225.6,70L225.6,70z"/>
				</g>
			</g>
			<g>
				<g>
					<path class="st0" d="M296.2,66.9c11.5,1.1,23.6,3.3,35.1,2.9c0.5,0,0.5-0.8,0-0.8c-11.7-0.7-23.4-2.2-35.1-3.3
						C295.4,65.5,295.4,66.8,296.2,66.9L296.2,66.9z"/>
				</g>
			</g>
			<g>
				<g>
					<path class="st0" d="M273.7,64.7c3.7,0.4,7.5,0.7,11.2,1.1c0.8,0.1,0.8-1.2,0-1.3c-3.7-0.4-7.5-0.7-11.2-1.1
						C272.8,63.4,272.8,64.7,273.7,64.7L273.7,64.7z"/>
				</g>
			</g>
			<g>
				<g>
					<path class="st0" d="M226.2,59.6c11.8,2.2,24.1,2.8,35.9,4c0.8,0.1,0.8-1.2,0-1.2c-11.9-1.1-24-1.7-35.8-3.4
						C226,58.9,225.8,59.6,226.2,59.6L226.2,59.6z"/>
				</g>
			</g>
			<g>
				<g>
					<path class="st0" d="M330.3,68.7c-0.2,2,0,4.1,0,6.1c0.1,1.8,0,3.6,0.4,5.4c0.1,0.6,1,0.4,1.1-0.1c0.3-2,0-4.1-0.1-6.1
						c-0.1-1.8-0.1-3.6-0.5-5.3C331.1,68.1,330.4,68.3,330.3,68.7L330.3,68.7z"/>
				</g>
			</g>
			<g>
				<g>
					<path class="st0" d="M225.9,59.2c6.8,0.5,14.1-1.2,20.9-1.9c6.4-0.7,12.8-1.3,19.1-2.2c0.6-0.1,0.5-1.1-0.1-1.1
						c-7,0.5-13.9,1.5-20.9,2.3c-6.2,0.7-13.1,0.7-19.1,2.5C225.6,58.8,225.6,59.2,225.9,59.2L225.9,59.2z"/>
				</g>
			</g>
			<g>
				<g>
					<path class="st0" d="M386.2,55.5c8.4,0.7,16.9,1.9,25.3,2c0.6,0,0.7-0.9,0.1-1c-8.1-1.8-17.2-1.5-25.4-2.1
						C385.5,54.4,385.5,55.5,386.2,55.5L386.2,55.5z"/>
				</g>
			</g>
			<g>
				<g>
					<path class="st0" d="M359.4,53.1c4.2,0.8,8.5,0.9,12.8,1.3c0.7,0.1,0.7-1,0-1.1c-4.2-0.3-8.5-0.6-12.7-0.9
						C359.1,52.5,359,53,359.4,53.1L359.4,53.1z"/>
				</g>
			</g>
			<g>
				<g>
					<path class="st0" d="M376.3,62.9c11.3-1.7,22.6-3.2,33.9-4.9c0.9-0.1,0.5-1.5-0.4-1.3c-11.3,1.7-22.6,3.4-33.9,5.1
						C375.2,61.8,375.5,63,376.3,62.9L376.3,62.9z"/>
				</g>
			</g>
			<g>
				<g>
					<path class="st0" d="M329.9,69.5c5.9-0.4,11.9-1.5,17.8-2.4c0.7-0.1,0.4-1.2-0.3-1.1c-5.8,0.9-11.8,1.5-17.6,2.8
						C329.5,68.9,329.5,69.5,329.9,69.5L329.9,69.5z"/>
				</g>
			</g>
			<g>
				<g>
					<path class="st0" d="M331.3,80.5c5.1,0.2,10.9-1.8,16-2.6c7.6-1.3,15.1-2.4,22.7-3.6c13.7-2.1,27.4-4.3,41.2-6
						c0.7-0.1,0.8-1.3,0-1.2c-13.4,1.7-26.8,3.8-40.1,5.8c-7.6,1.2-15.2,2.5-22.8,3.8c-5.3,0.9-12,1.1-17,3.3
						C330.9,80.1,331,80.5,331.3,80.5L331.3,80.5z"/>
				</g>
			</g>
			<g>
				<g>
					<path class="st0" d="M410.8,57.1c-0.6,3.3-0.4,7-0.1,10.3c0.1,0.8,1.3,0.9,1.3,0c0.1-3.3,0.1-7.1-0.6-10.3
						C411.3,56.9,410.9,56.9,410.8,57.1L410.8,57.1z"/>
				</g>
			</g>
			<g>
				<g>
					<g>
						<path class="st0" d="M229.9,152.1c0.8-1.2,1.5-2.1,2.8-2.8c1.4-0.8,3.5-1.6,4.5,0.3c1.4,2.9-2.4,6.4-5.1,4.7
							c-0.3-0.2-0.6,0.2-0.5,0.5c0.8,1.7,3.1,1.1,4.4,0.4c1.8-1.1,3.2-3.2,2.6-5.4c-1.4-5-8.7-1.7-9.3,2.1
							C229.3,152.2,229.7,152.4,229.9,152.1L229.9,152.1z"/>
					</g>
				</g>
				<g>
					<g>
						<path class="st0" d="M226.9,149.6c0.1-2.8-4.5-5.5-6.5-3.1c-2.1,2.4,0.6,6.7,3.3,7.3c0.7,0.1,1.1-0.7,0.5-1.1
							c-1.4-0.9-3.5-2.5-3-4.5c0.4-1.6,2.2-1.2,3.3-0.6c1,0.6,1.4,1.3,2,2.2C226.6,149.9,226.9,149.8,226.9,149.6L226.9,149.6z"/>
					</g>
				</g>
				<g>
					<g>
						<path class="st0" d="M223.3,155.3c3.8-5.1,8.3-8.3,14.4-10.1c5.3-1.6,14-3.6,18.4,0.9c4.3,4.3,1.1,10.6-3.3,13.2
							c-2.6,1.5-5.6,2.2-8.6,2.5c-6.8,0.8-16.4-0.6-20.4-6.9c-0.5-0.8-1.8-0.1-1.3,0.7c4.1,7,14.6,8.6,22,7.7
							c6.8-0.8,16.1-4.9,15.1-13.3c-0.9-7.9-9.9-8.6-16.1-7.7c-8,1.2-17.2,4.7-20.9,12.5C222.6,155.4,223.1,155.6,223.3,155.3
							L223.3,155.3z"/>
					</g>
				</g>
				<g>
					<g>
						<path class="st0" d="M259.9,151.4c5.4,0.8,16.2,9.1,21.1,2.3c1.7-2.4,1.2-6.2,0.3-8.8c-1.2-3.2-3.3-5.7-3.4-9.3
							c-0.1-4,1.6-7,3.6-10.4c0.3-0.5-0.4-0.9-0.8-0.6c-5.5,4.6-5,12.5-2.2,18.3c1.2,2.5,2.9,5.7,1.8,8.5c-1.4,3.6-6.2,3.3-9.1,2.5
							c-3.9-1.1-6.9-3.9-11.1-3.3C259.6,150.8,259.4,151.4,259.9,151.4L259.9,151.4z"/>
					</g>
				</g>
			</g>
			<g>
				<g>
					<path class="st0" d="M311.2,77.7c0.6,35.6-1.8,71.1-2.1,106.7c-0.3,35.6-0.8,71.4,0.5,106.9c0,0.4,0.7,0.4,0.7,0
						c0.4-35.6-0.4-71.3-0.2-106.9c0.2-35.6,2.5-71.1,1.6-106.7C311.7,77.4,311.2,77.4,311.2,77.7L311.2,77.7z"/>
				</g>
			</g>
			<g>
				<g>
					<path class="st0" d="M351.5,76.4c0.7,7.6,0.1,15.4,0.1,23c0,16.4-0.1,32.9-0.1,49.3c-0.2,36.8-0.4,73.6-0.8,110.4
						c-0.1,9.4,0.2,19-0.2,28.4c0,0.7,1.1,0.7,1.1,0c1.2-24.2,0.7-48.6,0.9-72.9c0.3-36.9,0.5-73.7,0.4-110.6c0-9,0.8-18.7-0.6-27.7
						C352.3,75.9,351.5,76,351.5,76.4L351.5,76.4z"/>
				</g>
			</g>
			<g>
				<g>
					<path class="st0" d="M308.9,290.3c3.9,6.5,15.7,7.1,22.5,7c7.1-0.1,17.7-1.3,22.1-7.7c0.4-0.5-0.4-1-0.8-0.7
						c-6.1,4.9-13.5,6.7-21.2,6.9c-7.2,0.2-16.4-0.9-21.9-5.9C309.1,289.7,308.7,290,308.9,290.3L308.9,290.3z"/>
				</g>
			</g>
			<g>
				<g>
					<path class="st0" d="M201.1,297.3c17.3-4,34.4-9.3,51.7-13.5c17.3-4.2,34.7-8,52.2-11.4c1.1-0.2,0.6-1.9-0.5-1.6
						c-17.5,3.4-34.8,7.3-52.1,11.5c-17.2,4.2-34.8,8.1-51.5,14C200.2,296.5,200.5,297.4,201.1,297.3L201.1,297.3z"/>
				</g>
			</g>
			<g>
				<g>
					<path class="st0" d="M304.6,271.6c1.7,0.3,4.1,1.2,5.7,0.5c0.3-0.1,0.2-0.5,0-0.7c-0.7-0.5-1.6-0.5-2.5-0.6c-1-0.1-2.1,0-3.1,0
						C304.2,270.8,304.1,271.5,304.6,271.6L304.6,271.6z"/>
				</g>
			</g>
			<g>
				<g>
					<path class="st0" d="M352.1,280.1c12.5,4.5,25.4,7.9,38.1,11.7c12.7,3.7,25.5,7.5,38.4,10.9c1.2,0.3,1.7-1.5,0.5-1.8
						c-12.7-3.8-25.6-7.3-38.4-10.9c-12.8-3.6-25.5-7.7-38.4-10.8C351.7,279,351.5,279.9,352.1,280.1L352.1,280.1z"/>
				</g>
			</g>
			<g>
				<g>
					<path class="st0" d="M200.8,300.5c17.2,7.4,36.1,11,54.1,15.7c20.3,5.3,40.7,10.7,61,15.8c1.2,0.3,1.7-1.5,0.5-1.9
						c-38.5-10.1-77.1-19.4-115.3-30.5C200.6,299.5,200.3,300.3,200.8,300.5L200.8,300.5z"/>
				</g>
			</g>
			<g>
				<g>
					<path class="st0" d="M316.6,331.7c20.5-4.8,40.9-10.6,61.3-15.9c16.7-4.3,33.1-9.7,49.9-13.5c1.2-0.3,0.7-2.1-0.5-1.8
						c-16.8,3.8-33.3,9.2-49.9,13.6c-20.3,5.4-41.1,10-61,17C316,331.2,316.2,331.8,316.6,331.7L316.6,331.7z"/>
				</g>
			</g>
			<g>
				<g>
					<path class="st0" d="M170.7,210.2c-0.1,5.1,0.3,10.4,1,15.5c0.1,0.9,1.4,0.9,1.4,0c0-5.1-0.4-10.5-1.2-15.6
						C171.7,209.4,170.7,209.6,170.7,210.2L170.7,210.2z"/>
				</g>
			</g>
			<g>
				<g>
					<path class="st0" d="M68.4,208.5c17,3.5,34.3,5.5,51.4,8.5c17.1,3,34.1,6.6,51.2,10.1c1.2,0.2,1.7-1.6,0.5-1.8
						c-17.3-3.9-34.7-7.2-52.2-10.2c-16.8-2.9-33.8-6.2-50.8-7.4C68.1,207.7,68,208.4,68.4,208.5L68.4,208.5z"/>
				</g>
			</g>
			<g>
				<g>
					<path class="st0" d="M68.3,192.6c16.7,4.3,34.2,6.7,51.2,9.5c17.1,2.8,34.3,5.7,51.5,8.1c1.1,0.2,1.7-1.6,0.5-1.8
						c-17.5-2.9-35-5.4-52.5-8.2c-16.8-2.7-33.7-6.3-50.6-8.4C68,191.8,67.9,192.5,68.3,192.6L68.3,192.6z"/>
				</g>
			</g>
			<g>
				<g>
					<path class="st0" d="M172,210.1c17.1-3.2,34-7.8,51.2-11c17.9-3.3,35.9-5.9,54-8.2c1.1-0.1,1.1-1.8,0-1.7
						c-17.6,2.3-35.1,4.7-52.5,8c-17.6,3.3-35.8,6.6-52.8,12.3C171.5,209.6,171.6,210.2,172,210.1L172,210.1z"/>
				</g>
			</g>
			<g>
				<g>
					<path class="st0" d="M171.5,227.3c17.8-2.6,35.4-7.3,53-11.1c17.6-3.8,35.2-7.6,52.9-11.3c1.1-0.2,0.7-2-0.5-1.7
						c-17.6,3.9-35.2,7.7-52.8,11.5c-17.5,3.8-35.5,6.9-52.8,11.8C170.7,226.6,171,227.4,171.5,227.3L171.5,227.3z"/>
				</g>
			</g>
			<g>
				<g>
					<path class="st0" d="M276.6,189.7c-0.7,4.4-0.5,9.9,1,14.1c0.2,0.6,1.3,0.6,1.3-0.2c-0.1-2.5-0.7-4.9-1-7.4
						c-0.3-2.2-0.5-4.3-0.8-6.5C277,189.4,276.6,189.4,276.6,189.7L276.6,189.7z"/>
				</g>
			</g>
			<g>
				<g>
					<path class="st0" d="M68.3,193.4c18.7-2.9,37.2-7,55.9-10.3c18.6-3.3,37.3-6.4,56.1-9c1.1-0.2,0.6-1.8-0.5-1.7
						c-18.7,2.9-37.4,5.8-56.1,9.1c-18.6,3.3-37.4,6.4-55.7,11.1C67.6,192.7,67.8,193.5,68.3,193.4L68.3,193.4z"/>
				</g>
			</g>
			<g>
				<g>
					<path class="st0" d="M179.5,174c15.9,3.4,32.2,5.1,48.3,7.7c16.1,2.6,32.1,5.6,48.2,8.6c1.2,0.2,1.8-1.6,0.5-1.9
						c-16.3-3.3-32.7-6.1-49.1-8.8c-15.7-2.6-31.8-5.6-47.7-6.7C179.1,172.9,179,173.8,179.5,174L179.5,174z"/>
				</g>
			</g>
			<g>
				<g>
					<path class="st0" d="M158.7,224c-1.5,17.5-0.6,35.5-0.8,53.1c-0.1,17.4-0.2,34.8-0.2,52.2c0,16.8,2.1,33.5,1.9,50.3
						c-0.2,17.7-0.3,35.3-0.5,53c0,0.8,1.3,0.8,1.3,0c0.3-17.7,0.7-35.3,0.9-53c0.2-16.8-1.8-33.5-1.8-50.3
						c0-17.4,0.2-34.8,0.2-52.2c0-17.6,1-35.6-0.4-53.1C159.4,223.6,158.7,223.6,158.7,224L158.7,224z"/>
				</g>
			</g>
			<g>
				<g>
					<path class="st0" d="M199.7,221.5c-0.8,10.9-0.2,22-0.1,33c0.1,14.6,0.2,29.2,0.3,43.7c0.2,31,0.4,62.1,0.7,93.1
						c0.1,12.7,0.3,25.3,0.5,38c0,1.1,1.8,1.1,1.8,0c-0.5-56.6-0.8-113.2-1.4-169.8c-0.1-12.6,0.4-25.4-0.8-38
						C200.5,221,199.7,221,199.7,221.5L199.7,221.5z"/>
				</g>
			</g>
			<g>
				<g>
					<path class="st0" d="M159.3,432.8c5.4,7.7,16.6,7.7,25,7.6c7-0.1,17.5-2.4,18-11c0-0.7-1-1-1.3-0.4c-3.8,8.3-11,9.5-19.5,9.4
						c-8-0.1-15.3-0.6-21.6-6.1C159.5,432,159,432.4,159.3,432.8L159.3,432.8z"/>
				</g>
			</g>
			<g>
				<g>
					<path class="st0" d="M268.7,480.7c-0.5,4.5,0,9.2,0.9,13.6c0.2,1,1.7,0.6,1.5-0.4c-0.8-4.4-1.1-8.7-1.4-13.2
						C269.6,480.1,268.7,480.1,268.7,480.7L268.7,480.7z"/>
				</g>
			</g>
			<g>
				<g>
					<path class="st0" d="M268.5,482.2c16.1-5.6,31.5-12.9,48.1-17.4c1.1-0.3,0.6-2-0.5-1.7c-16.1,4.4-33.3,10.1-48,18.2
						C267.7,481.6,268,482.4,268.5,482.2L268.5,482.2z"/>
				</g>
			</g>
			<g>
				<g>
					<path class="st0" d="M316.3,463.1c1.3-10.8,0.6-22,0.6-32.8c0-10.9,0-21.9,0-32.8c0-10.6,0-21.2,0-31.8c0-11.1,1-22.8-0.3-33.8
						c-0.1-0.7-1.1-0.7-1.2,0c-1.3,10.7-0.3,22-0.3,32.8c0,10.9,0,21.9,0,32.8c0,10.6,0,21.2,0,31.8c0,11.2-0.8,22.7,0.6,33.8
						C315.7,463.5,316.2,463.5,316.3,463.1L316.3,463.1z"/>
				</g>
			</g>
			<g>
				<g>
					<path class="st0" d="M143.1,434.6c-0.6,1.6-0.4,3.4-0.4,5.1c0,1.9-0.2,3.9,0,5.9c0.1,0.7,1.1,0.7,1.2,0c0.2-1.9,0.1-3.9,0-5.9
						c0-1.7,0.1-3.5-0.4-5.1C143.4,434.5,143.2,434.5,143.1,434.6L143.1,434.6z"/>
				</g>
			</g>
			<g>
				<g>
					<path class="st0" d="M142.2,447.4c17.5,5.8,35.1,11.3,52.6,17.1c25.2,8.3,49.2,19.5,73.6,29.9c1,0.4,2-1.1,0.9-1.5
						c-24.2-10.4-48-21.7-73-29.8c-17.8-5.8-35.7-12-53.9-16.4C141.9,446.5,141.7,447.2,142.2,447.4L142.2,447.4z"/>
				</g>
			</g>
			<g>
				<g>
					<path class="st0" d="M142.7,436.4c21.5,6.9,42.8,13.9,63.9,21.9c20.8,7.9,41.3,16.7,62.3,24.2c1.2,0.4,1.6-1.4,0.5-1.9
						c-20.6-8.4-41.4-16.5-62.3-24.4c-20.9-7.9-42.3-16.2-64.2-20.7C142.3,435.3,142.1,436.2,142.7,436.4L142.7,436.4z"/>
				</g>
			</g>
			<g>
				<g>
					<path class="st0" d="M143.1,435.8c5.5-2.5,10.8-5.6,16.1-8.5c0.8-0.4,0.1-1.6-0.7-1.1c-5.3,2.9-10.8,5.6-15.9,8.8
						C142.1,435.3,142.5,436.1,143.1,435.8L143.1,435.8z"/>
				</g>
			</g>
			<g>
				<g>
					<path class="st0" d="M201.8,423.5c9.3,3.6,19.1,6.3,28.5,9.7c9.5,3.5,18.9,7.2,28.4,10.8c18.8,7.3,37.7,14.5,57.4,19.5
						c1.1,0.3,1.6-1.5,0.5-1.8c-19.6-5.2-38.5-12.4-57.3-19.7c-9.1-3.5-18.3-7.1-27.5-10.4c-9.6-3.4-19.5-7.2-29.6-8.9
						C201.5,422.8,201.3,423.4,201.8,423.5L201.8,423.5z"/>
				</g>
			</g>
			<g>
				<g>
					<path class="st0" d="M428.3,301.2c-1.5,6-0.7,13.1-0.5,19.2c0.3,11,0.7,22,1.1,32.9c1,26.2,0.5,52.3,0.4,78.4
						c0,1.1,1.7,1.1,1.7,0c0.4-26,1-51.9-0.2-77.8c-0.7-17.4-2.6-35.2-1.7-52.6C429.3,300.8,428.5,300.7,428.3,301.2L428.3,301.2z"
						/>
				</g>
			</g>
			<g>
				<g>
					<path class="st0" d="M270.4,494.9c6.7-1.3,13.4-4.2,19.9-6.4c6.8-2.3,13.5-4.7,20.3-7.2c13.8-5.1,27.5-10.3,41.2-15.7
						c26.3-10.4,52.4-21.3,78.4-32.6c0.9-0.4,0.1-1.8-0.8-1.4c-26.6,11.7-53.5,22.9-80.5,33.6c-13.4,5.3-26.8,10.4-40.3,15.4
						c-6.7,2.5-13.5,4.9-20.2,7.3c-6,2.1-12.4,3.8-18.1,6.5C269.9,494.5,270.1,494.9,270.4,494.9L270.4,494.9z"/>
				</g>
			</g>
			<g>
				<g>
					<path class="st0" d="M245.8,335c-15.7-2.2-28.8,10.4-32.6,24.8c-4.3,16.2-0.3,36.9,12.1,48.8c12,11.5,30.1,14.1,44.9,6.7
						c7.3-3.6,13.5-9.4,15.6-17.4c2.3-8.8,1.7-18.4-0.9-27.1c-5.4-18.2-21.7-34.1-40.9-36.7c-1-0.1-1.5,1.3-0.5,1.6
						c14.9,4.1,27.8,11.9,35.3,25.8c7.2,13.3,10.7,35.7-2,46.8c-12.3,10.7-31,12-44.6,3.1c-13.5-8.8-19.1-25.1-18.7-40.8
						c0.4-18,12.5-35.9,32.1-34.8C246.2,335.9,246.3,335.1,245.8,335L245.8,335z"/>
				</g>
			</g>
			<g>
				<g>
					<path class="st0" d="M220.4,401.3c21.9-4.8,43.7-11,65.1-17.4c1-0.3,0.6-1.8-0.4-1.5c-21.6,5.9-43.5,11.6-64.9,18.1
						C219.7,400.7,219.9,401.4,220.4,401.3L220.4,401.3z"/>
				</g>
			</g>
			<g>
				<g>
					<path class="st0" d="M389.1,338.1c-15.8-2.1-31.5,6.3-40.4,19.1c-9.8,14-12.1,34.2-6.2,50.2c6,16.3,24.1,20.2,39.1,14.1
						c15.9-6.5,24.8-22.7,27.6-39c3-17.4-2-40.8-21.9-45.4c-1-0.2-1.4,1.2-0.4,1.6c32.9,11.4,24.4,62.7-0.6,78.1
						c-13.3,8.2-33.7,7.9-41.1-8c-6.6-14.2-4.8-33.2,2.5-46.7c8.2-15.1,24.1-24.1,41.3-23.4C389.4,338.9,389.5,338.1,389.1,338.1
						L389.1,338.1z"/>
				</g>
			</g>
			<g>
				<g>
					<path class="st0" d="M338.9,384.4c9.4,4.1,20,6.2,29.8,9c10.6,3,21.1,6.1,31.8,9c1.2,0.3,1.7-1.5,0.5-1.9
						c-10.2-3-20.5-5.9-30.8-8.7c-10.1-2.8-20.6-6.7-31-8.2C338.8,383.7,338.4,384.2,338.9,384.4L338.9,384.4z"/>
				</g>
			</g>
		</g>
	</g>
</g>
</svg>
