<?xml version="1.0" encoding="utf-8"?>
<!-- Generator: Adobe Illustrator 19.2.1, SVG Export Plug-In . SVG Version: 6.00 Build 0)  -->
<svg version="1.1" id="Layer_1" xmlns="http://www.w3.org/2000/svg" xmlns:xlink="http://www.w3.org/1999/xlink" x="0px" y="0px"
	 viewBox="0 0 500 500" style="enable-background:new 0 0 500 500;" xml:space="preserve">
<style type="text/css">
	.st0{ 
		<!-- fill:#211915; -->
		stroke: #D793B5;
		stroke-width: 2;
	}
</style>
<g>
	<g>
		<path class="st0" d="M269,213.2c7.9,5.3,17.7,6.9,27,6.9c5.4,0,10.8-0.5,16.2-1.1c4.5-0.5,9.1-1,13.2-3.1c0.5-0.3,0.1-0.9-0.4-0.7
			c-4.7,2.2-9.7,2.6-14.7,3.2c-4.7,0.5-9.5,0.9-14.2,0.9c-9.4,0-18.5-1.8-26.7-6.6C269,212.5,268.7,213,269,213.2L269,213.2z"/>
	</g>
</g>
<g>
	<g>
		<path class="st0" d="M270.4,206.3c7,6.5,18.5,6.7,27.5,6.9c5.5,0.1,11-0.2,16.5-0.9c3.6-0.5,8.9-0.8,11.2-4.2
			c0.2-0.2-0.2-0.5-0.4-0.3c-3.8,3.1-8.5,3.5-13.3,4c-4.8,0.5-9.6,0.7-14.4,0.6c-8.6-0.2-19.8-0.5-26.6-6.5
			C270.5,205.7,270.1,206.1,270.4,206.3L270.4,206.3z"/>
	</g>
</g>
<g>
	<g>
		<path class="st0" d="M271.9,199.5c8.2,5.4,19.6,5.4,29.1,5.6c4.6,0.1,9.3-0.1,13.8-1.1c4.2-0.9,9.1-2.5,12.1-5.7
			c0.2-0.2-0.1-0.6-0.3-0.4c-4,2.2-7.5,4.3-12,5.2c-4.6,1-9.3,1.1-14,1c-9.8-0.2-19.5-0.8-28.4-5.2
			C271.9,198.8,271.6,199.3,271.9,199.5L271.9,199.5z"/>
	</g>
</g>
<g>
	<g>
		<path class="st0" d="M271.9,193.5c7.9,5.6,17.8,6.3,27.1,6.3c8.6,0,19.7,0.6,26.7-5.3c0.2-0.2-0.1-0.5-0.3-0.4
			c-4.3,2.4-8.5,3.8-13.4,4.4c-4.5,0.5-9,0.5-13.4,0.5c-9.1,0-18.6-0.7-26.5-6C271.9,192.9,271.6,193.3,271.9,193.5L271.9,193.5z"/>
	</g>
</g>
<g>
	<g>
		<path class="st0" d="M269.9,133.9C269.9,133.9,269.9,133.8,269.9,133.9C269.9,133.8,269.9,133.9,269.9,133.9L269.9,133.9z"/>
	</g>
</g>
<g>
	<g>
		<path class="st0" d="M270.3,186.6c3.4,2.3,7.6,3.2,11.6,3.7c5,0.6,10,1,15,1.2c9.7,0.5,19.8,0.3,29-3.4c0.5-0.2,0.3-1-0.2-0.8
			c-9,3.2-18.4,3.8-27.9,3.3c-9.1-0.4-18.9-0.5-27.3-4.5C270.3,186.1,270.1,186.4,270.3,186.6L270.3,186.6z"/>
	</g>
</g>
<g>
	<g>
		<path class="st0" d="M270.6,180.1c8.6,3.7,18.7,5.1,28,5.4c9.8,0.4,19.8-0.6,29.2-3.5c0.6-0.2,0.3-1-0.2-0.9
			c-9.4,2.3-18.8,3.7-28.5,3.4c-4.8-0.1-9.5-0.6-14.3-1.4c-4.8-0.8-9.3-2.3-14-3.4C270.5,179.7,270.4,180,270.6,180.1L270.6,180.1z"
			/>
	</g>
</g>
<g>
	<g>
		<path class="st0" d="M270.1,173.4c8.3,3.8,18.3,5.2,27.4,5.7c9.5,0.5,19.5,0,28.7-2.6c0.5-0.2,0.3-0.9-0.2-0.8
			c-9.3,1.8-18.5,3.1-28,2.6c-4.8-0.2-9.6-0.8-14.4-1.8c-4.5-0.9-8.8-2.4-13.3-3.5C270,172.9,269.8,173.3,270.1,173.4L270.1,173.4z"
			/>
	</g>
</g>
<g>
	<g>
		<path class="st0" d="M270.2,167.1c8.4,3.7,18.3,5.2,27.5,5.6c9.3,0.5,19.8-0.1,28.7-3.1c0.4-0.1,0.2-0.7-0.2-0.6
			c-4.7,0.9-9.3,2-14.1,2.5c-4.6,0.5-9.3,0.6-14,0.4c-9.6-0.4-18.5-2.8-27.7-5.3C270.1,166.6,269.9,167,270.2,167.1L270.2,167.1z"/>
	</g>
</g>
<g>
	<g>
		<path class="st0" d="M270.1,161.3c8.9,3.5,18.6,5,28.1,5.4c4.8,0.2,9.7,0,14.5-0.5c4.6-0.5,9.5-1.1,13.9-2.7
			c0.4-0.1,0.2-0.7-0.2-0.6c-4.8,0.8-9.4,2-14.2,2.5c-4.7,0.5-9.4,0.7-14.1,0.5c-9.6-0.3-18.8-2.4-28-5.1
			C269.9,160.7,269.8,161.2,270.1,161.3L270.1,161.3z"/>
	</g>
</g>
<g>
	<g>
		<path class="st0" d="M271.1,154.6c8.6,3.6,18.1,5.3,27.4,5.5c4.6,0.1,9.2-0.1,13.8-0.8c4.3-0.6,9.2-1.2,13.1-3.1
			c0.3-0.2,0.1-0.6-0.2-0.6c-4.4,0.7-8.6,2.2-13,2.8c-4.7,0.7-9.4,0.9-14.1,0.8c-9.2-0.3-18.1-2.2-26.8-5.1
			C271,154,270.9,154.4,271.1,154.6L271.1,154.6z"/>
	</g>
</g>
<g>
	<g>
		<path class="st0" d="M270.1,147.5c8.7,3.4,18.4,4.9,27.8,5.1c9.2,0.2,19.4-0.4,28-3.6c0.4-0.1,0.2-0.7-0.2-0.6
			c-4.7,0.9-9.4,2.2-14.2,2.8c-4.5,0.6-9.1,0.8-13.7,0.7c-9.5-0.2-18.5-2.2-27.6-4.8C269.9,147,269.8,147.4,270.1,147.5L270.1,147.5
			z"/>
	</g>
</g>
<g>
	<g>
		<path class="st0" d="M271.2,142.3c9.6,3.5,20,4,30.1,4c4.8,0,9.6,0.1,14.3-0.3c3.9-0.4,7.8-1.3,10.8-4c0.3-0.2-0.1-0.7-0.4-0.5
			c-7.5,5-17.5,4-26.1,4c-9.7-0.1-19.2-0.9-28.6-3.7C271,141.7,270.9,142.2,271.2,142.3L271.2,142.3z"/>
	</g>
</g>
<g>
	<g>
		<path class="st0" d="M271.8,135.7c8.4,3.5,18.4,3.6,27.4,3.9c8.9,0.3,18.7,0.7,27.1-2.7c0.4-0.2,0.3-0.8-0.2-0.7
			c-4.4,1-8.6,2.1-13.1,2.5c-4.6,0.4-9.2,0.2-13.8,0.1c-4.4-0.1-8.8-0.3-13.2-0.8c-4.8-0.5-9.4-1.6-14.1-2.7
			C271.7,135.3,271.6,135.6,271.8,135.7L271.8,135.7z"/>
	</g>
</g>
<g>
	<g>
		<path class="st0" d="M273,130.2c8.4,3.4,18.6,2.7,27.5,3.1c8.5,0.4,17.4,1,25.4-2.5c0.5-0.2,0.1-1-0.4-0.8
			c-8.2,3.5-17.2,2.8-26,2.4c-8.8-0.4-17.9,0-26.4-2.6C272.8,129.8,272.7,130.2,273,130.2L273,130.2z"/>
	</g>
</g>
<g>
	<g>
		<path class="st0" d="M272.4,125.3c8.9,1.8,18.2,2.6,27.2,2.9c9,0.3,18.2-0.4,26.8-3.2c0.5-0.2,0.3-0.9-0.2-0.8
			c-8.9,2.5-17.8,3.5-27,3.2c-9-0.3-17.8-1.8-26.7-2.5C272.2,124.8,272.1,125.2,272.4,125.3L272.4,125.3z"/>
	</g>
</g>
<g>
	<g>
		<path class="st0" d="M230.7,320.2c-0.1,5.1-0.1,10.1-0.1,15.2c0,2.4-0.1,4.9,0,7.3c0,0.9,0.5,2.3,0.3,3.1
			c-0.1,0.2,0.2,0.3,0.3,0.1c0.5-0.8,0.3-1.7,0.3-2.6c-0.1-2.3-0.1-4.6-0.1-7c0-5.4-0.1-10.8-0.1-16.1
			C231.2,319.9,230.7,319.9,230.7,320.2L230.7,320.2z"/>
	</g>
</g>
<g>
	<g>
		<path class="st0" d="M224,311.5c0.7,6.1,1.2,12.3,1.3,18.5c0.2,6.2-0.5,12.4-0.3,18.5c0,0.4,0.6,0.5,0.7,0.1
			c1.1-6,0.8-12.5,0.6-18.6c-0.2-6.2-0.8-12.4-1.7-18.5C224.4,311.1,223.9,311.2,224,311.5L224,311.5z"/>
	</g>
</g>
<g>
	<g>
		<path class="st0" d="M218.9,303.7c0.1,8,0.3,16,0.6,24c0.1,3.9,0.3,7.8,0.3,11.7c0.1,3.9-0.5,7.6-0.8,11.4c0,0.3,0.4,0.3,0.5,0.1
			c1.2-3.3,1.3-7.1,1.2-10.5c0-4.1-0.2-8.1-0.4-12.2c-0.3-8.2-0.5-16.4-1-24.5C219.3,303.4,218.9,303.4,218.9,303.7L218.9,303.7z"/>
	</g>
</g>
<g>
	<g>
		<path class="st0" d="M212.1,298.5c0.4,8.8,1,17.5,1.3,26.3c0.1,4.3,0.2,8.6,0.2,12.9c0,4.4-0.4,9,0.2,13.4c0,0.2,0.4,0.3,0.4,0.1
			c0.7-4.2,0.3-8.7,0.3-13c0-4.3-0.1-8.6-0.3-12.9c-0.3-8.9-0.7-17.9-1.7-26.8C212.5,298.2,212.1,298.2,212.1,298.5L212.1,298.5z"/>
	</g>
</g>
<g>
	<g>
		<path class="st0" d="M206.1,291.3c-0.2,10.2-0.2,20.4-0.2,30.5c0,4.9,0,9.8,0,14.8c0,5.2-0.3,10.6,0.1,15.8c0,0.4,0.6,0.4,0.6,0
			c0.5-5.2,0.1-10.5,0.1-15.8c0-4.9,0-9.8,0-14.8c0-10.2,0-20.4-0.2-30.5C206.6,291,206.1,291,206.1,291.3L206.1,291.3z"/>
	</g>
</g>
<g>
	<g>
		<path class="st0" d="M199.2,287.1c0.2,11.3,0.5,22.6,0.8,33.9c0.2,5.5,0.3,11,0.5,16.5c0.2,5.8-0.1,11.7,0.7,17.5
			c0,0.3,0.5,0.4,0.5,0c0.4-5.6-0.2-11.4-0.3-17c-0.2-5.7-0.3-11.3-0.5-17c-0.3-11.3-0.7-22.6-1.2-33.9
			C199.6,286.8,199.2,286.8,199.2,287.1L199.2,287.1z"/>
	</g>
</g>
<g>
	<g>
		<path class="st0" d="M194.8,286.8c-1.5,11.5-2,23.3-2.3,34.9c-0.3,11.5-0.8,23.5,0.5,34.9c0,0.3,0.5,0.3,0.5,0
			c0.1-5.7-0.3-11.5-0.4-17.2c-0.1-5.9,0-11.8,0.1-17.7c0.3-11.7,1.2-23.3,1.9-34.9C195.2,286.5,194.8,286.5,194.8,286.8
			L194.8,286.8z"/>
	</g>
</g>
<g>
	<g>
		<path class="st0" d="M186.5,284.8c-0.1,23.6-0.7,47.2-0.1,70.8c0,0.4,0.6,0.4,0.6,0c0.6-23.6,0.1-47.2-0.1-70.8
			C187,284.5,186.5,284.5,186.5,284.8L186.5,284.8z"/>
	</g>
</g>
<g>
	<g>
		<path class="st0" d="M178.3,285.1c0.2,12.3,0.3,24.6,0.4,36.9c0,6,0.1,12,0.1,17.9c0,6.3-0.3,12.7,0.2,18.9c0,0.4,0.6,0.4,0.6,0
			c0.4-6.1,0.1-12.3,0.1-18.4c0-6.1-0.1-12.3-0.2-18.4c-0.1-12.3-0.4-24.6-0.7-36.9C178.8,284.8,178.3,284.8,178.3,285.1
			L178.3,285.1z"/>
	</g>
</g>
<g>
	<g>
		<path class="st0" d="M171.5,282.2c-0.9,12.9-1.2,25.9-1.4,38.8c-0.1,6.3-0.1,12.6-0.1,18.9c0,6.6-0.1,13.3,0.5,19.9
			c0,0.4,0.6,0.4,0.6,0c0.3-6.4-0.2-13-0.2-19.4c-0.1-6.5,0-12.9,0-19.4c0.1-12.9,0.6-25.9,1-38.8
			C172,281.9,171.5,281.9,171.5,282.2L171.5,282.2z"/>
	</g>
</g>
<g>
	<g>
		<path class="st0" d="M161.2,286.4c0.7,12.9,1.3,25.8,1.7,38.6c0.4,12.9,0.4,25.8,0.8,38.7c0,0.5,0.8,0.5,0.8,0
			c0.3-12.9-0.2-25.8-0.7-38.7c-0.5-12.9-1.1-25.8-2.1-38.6C161.7,286.1,161.2,286.1,161.2,286.4L161.2,286.4z"/>
	</g>
</g>
<g>
	<g>
		<path class="st0" d="M154.7,291.7c0.4,12.6,1,25.1,1.5,37.7c0.5,12.6,0.6,25.1,1.2,37.7c0,0.5,0.7,0.5,0.8,0
			c0-12.6-0.6-25.1-1.1-37.7c-0.5-12.6-1-25.1-1.9-37.7C155.2,291.3,154.7,291.3,154.7,291.7L154.7,291.7z"/>
	</g>
</g>
<g>
	<g>
		<path class="st0" d="M149.4,297.5c-1.2,11.1-1.7,22.3-1.7,33.5c0,5.4,0.1,10.8,0.4,16.3c0.3,5.4,0.2,11,1.3,16.3
			c0.1,0.3,0.5,0.2,0.5-0.1c0.1-5.4-0.7-10.8-1-16.2c-0.3-5.6-0.4-11.2-0.4-16.7c0-11,0.5-22,1.3-33
			C149.8,297.2,149.4,297.2,149.4,297.5L149.4,297.5z"/>
	</g>
</g>
<g>
	<g>
		<path class="st0" d="M154.5,368.7c8.3,3.8,16.7,7.5,25,11.3c8,3.6,16,7.8,24.2,11c0.3,0.1,0.5-0.4,0.2-0.5
			c-8-4.4-16.7-7.8-25-11.5c-8.1-3.6-16.2-7.2-24.4-10.6C154.4,368.3,154.3,368.6,154.5,368.7L154.5,368.7z"/>
	</g>
</g>
<g>
	<g>
		<path class="st0" d="M180.2,361.5c6.9,3.8,13.9,7.4,21,10.9c6.8,3.3,13.7,6.9,20.8,9.4c0.3,0.1,0.5-0.4,0.2-0.5
			c-6.8-3.6-14.1-6.4-21.1-9.7c-7-3.3-13.9-6.7-20.7-10.4C180.1,360.9,179.9,361.4,180.2,361.5L180.2,361.5z"/>
	</g>
</g>
<g>
	<g>
		<path class="st0" d="M202.1,355.5c5.2,2.3,10.5,4.4,15.8,6.5c5.8,2.3,11.7,4.8,17.6,6.7c0.3,0.1,0.6-0.4,0.2-0.6
			c-5.4-2.6-11.2-4.4-16.8-6.5c-5.6-2.1-11.1-4.2-16.6-6.3C202,355,201.9,355.4,202.1,355.5L202.1,355.5z"/>
	</g>
</g>
<g>
	<g>
		<path class="st0" d="M313.4,357c11.9,3.5,23.8,7.1,35.7,10.9c11.9,3.8,23.6,7.9,35.5,11.6c0.5,0.2,0.7-0.6,0.2-0.8
			c-23.3-8.5-47.3-15.5-71.2-22.5C313.1,356.1,312.9,356.9,313.4,357L313.4,357z"/>
	</g>
</g>
<g>
	<g>
		<path class="st0" d="M317,376.1c8.6,3.3,17.3,6.5,25.9,9.8c8.6,3.2,17.2,6.9,26,9.7c0.4,0.1,0.6-0.5,0.3-0.6
			c-8.3-3.7-17-6.6-25.5-9.8c-8.8-3.3-17.6-6.6-26.4-10C316.7,375,316.5,375.9,317,376.1L317,376.1z"/>
	</g>
</g>
<g>
	<g>
		<path class="st0" d="M229.1,348.6c2.9,0.2,5.4,0.9,8,2.1c0.2,0.1,0.3-0.2,0.2-0.3c-2.3-1.7-5.3-2.5-8.1-2.2
			C228.9,348.3,228.9,348.6,229.1,348.6L229.1,348.6z"/>
	</g>
</g>
<g>
	<g>
		<path class="st0" d="M317.8,348.4c0.2-4.4,0.1-8.8,0.1-13.1c0-4.3,0.4-8.8-0.1-13.1c0-0.2-0.3-0.2-0.4,0
			c-0.5,4.3-0.1,8.8-0.1,13.1c0,4.4-0.1,8.8,0.1,13.1C317.4,348.7,317.8,348.7,317.8,348.4L317.8,348.4z"/>
	</g>
</g>
<g>
	<g>
		<path class="st0" d="M324.4,350c0.2-6.9-0.3-13.8-0.4-20.6c-0.1-6.9,0.2-13.8-0.1-20.7c0-0.3-0.4-0.3-0.5,0
			c-0.5,6.8-0.2,13.8-0.1,20.7c0.1,6.8,0,13.8,0.7,20.6C324.1,350.2,324.4,350.2,324.4,350L324.4,350z"/>
	</g>
</g>
<g>
	<g>
		<path class="st0" d="M332.8,352.7c-0.1-8.6-0.7-17.2-0.9-25.7c-0.1-4.3-0.2-8.6-0.3-12.9c-0.1-4.3,0.1-8.6-0.3-12.9
			c0-0.2-0.3-0.2-0.3,0c-0.4,4.2-0.1,8.6,0,12.9c0.1,4.3,0.2,8.6,0.3,12.9c0.3,8.6,0.5,17.2,1.3,25.7
			C332.6,352.9,332.8,352.9,332.8,352.7L332.8,352.7z"/>
	</g>
</g>
<g>
	<g>
		<path class="st0" d="M340,354.9c0.3-10.1,0.2-20.2,0.2-30.3c0-10.1,0.5-20.3-0.1-30.3c0-0.3-0.5-0.3-0.5,0
			c-0.6,10-0.1,20.3-0.1,30.3c0,10.1-0.2,20.2,0.2,30.3C339.7,355,340,355,340,354.9L340,354.9z"/>
	</g>
</g>
<g>
	<g>
		<path class="st0" d="M347.3,357c0-11.1,0.1-22.2,0.3-33.3c0.1-5.5,0.3-10.9,0.4-16.4c0.2-5.6,0.7-11.3,0.5-16.9
			c0-0.3-0.5-0.3-0.5,0c-0.6,5.4-0.5,10.9-0.7,16.4c-0.2,5.6-0.3,11.3-0.4,16.9c-0.2,11.1-0.2,22.2,0,33.3
			C347,357.2,347.3,357.2,347.3,357L347.3,357z"/>
	</g>
</g>
<g>
	<g>
		<path class="st0" d="M353.3,357.5c0.6-11.8,0.4-23.6,0.7-35.4c0.3-11.8,1.1-23.6,1.5-35.4c0-0.4-0.6-0.4-0.6,0
			c-0.9,11.8-1.2,23.6-1.5,35.4c-0.3,11.8-0.9,23.7-0.4,35.4C353,357.7,353.3,357.7,353.3,357.5L353.3,357.5z"/>
	</g>
</g>
<g>
	<g>
		<path class="st0" d="M361.8,360.8c0.3-6.2,0-12.5,0-18.8c0-6.4,0-12.9,0.1-19.3c0-12.7,0.7-25.4,0.2-38.1c0-0.4-0.6-0.4-0.6,0
			c-0.8,12.6-0.3,25.4-0.3,38.1c0,6.3,0,12.5,0.1,18.8c0,6.4-0.2,12.9,0.3,19.3C361.5,360.9,361.8,360.9,361.8,360.8L361.8,360.8z"
			/>
	</g>
</g>
<g>
	<g>
		<path class="st0" d="M368.9,362.4c0.5-13,0.3-26.1,0.4-39.2c0.1-13,0.8-26.2,0.1-39.2c0-0.2-0.3-0.2-0.4,0
			c-0.9,13-0.4,26.2-0.4,39.2c-0.1,13-0.4,26.1-0.1,39.2C368.6,362.6,368.9,362.6,368.9,362.4L368.9,362.4z"/>
	</g>
</g>
<g>
	<g>
		<path class="st0" d="M376.3,363.5c0.9-12.8,0.6-25.8,0.6-38.6c0-6.3-0.1-12.5-0.2-18.8c-0.1-6.5,0.1-13.3-0.7-19.8
			c0-0.3-0.4-0.3-0.4,0c-0.4,6.4,0.3,12.9,0.4,19.3c0.1,6.4,0.2,12.9,0.3,19.3c0.1,12.9-0.5,25.8-0.2,38.6
			C376,363.7,376.3,363.7,376.3,363.5L376.3,363.5z"/>
	</g>
</g>
<g>
	<g>
		<path class="st0" d="M384.9,366.7c0.7-12.7,0.8-25.4,0.7-38.1c-0.1-6.3-0.2-12.5-0.5-18.8c-0.3-6.4-0.3-12.9-1.1-19.3
			c0-0.4-0.6-0.4-0.6,0c0.1,6.3,0.7,12.5,1,18.8c0.3,6.4,0.5,12.9,0.6,19.3c0.2,12.7,0,25.4-0.4,38.1
			C384.6,366.9,384.9,366.9,384.9,366.7L384.9,366.7z"/>
	</g>
</g>
<g>
	<g>
		<path class="st0" d="M391.6,368.3c1.7-11.2,2.1-22.8,2.4-34.1c0.2-5.8,0.2-11.5,0.1-17.3c-0.1-5.9,0-11.9-0.7-17.8
			c0-0.4-0.6-0.4-0.6,0c-0.1,5.8,0.5,11.5,0.6,17.3c0.1,5.8,0.1,11.5,0,17.3c-0.3,11.6-1.4,23-2.1,34.5
			C391.2,368.4,391.5,368.5,391.6,368.3L391.6,368.3z"/>
	</g>
</g>
<g>
	<g>
		<path class="st0" d="M399.1,358.1c0.8-7.5,1-15,1.3-22.5c0.1-3.6,0.2-7.2,0.2-10.8c0-3.9,0.3-7.9-0.1-11.8c0-0.2-0.4-0.3-0.4,0
			c-0.4,3.7-0.1,7.5-0.1,11.3c0,3.8-0.1,7.5-0.2,11.3c-0.2,7.5-0.7,15-1,22.5C398.8,358.2,399,358.2,399.1,358.1L399.1,358.1z"/>
	</g>
</g>
<g>
	<g>
		<path class="st0" d="M59.5,420.8c0.1,3.8-0.3,7.5-0.3,11.3c0,0.3,0.4,0.3,0.5,0.1c1-3.6,0.8-7.6,0.4-11.3
			C60,420.5,59.5,420.5,59.5,420.8L59.5,420.8z"/>
	</g>
</g>
<g>
	<g>
		<path class="st0" d="M67.4,424.6c-0.3,4.1-0.8,8.2-0.6,12.3c0,0.3,0.4,0.3,0.5,0.1c0.6-4.1,0.5-8.3,0.7-12.4
			C68,424.2,67.4,424.2,67.4,424.6L67.4,424.6z"/>
	</g>
</g>
<g>
	<g>
		<path class="st0" d="M76.9,427.3c0.3,4.3,0.6,8.6,1.3,12.9c0,0.2,0.4,0.2,0.4-0.1c-0.1-4.3-0.6-8.6-1.1-12.9
			C77.5,426.9,76.9,426.9,76.9,427.3L76.9,427.3z"/>
	</g>
</g>
<g>
	<g>
		<path class="st0" d="M87.8,431.6c-0.1,3.7-0.3,7.5,0,11.3c0,0.3,0.5,0.3,0.5,0c0.3-3.7,0.1-7.5,0-11.3
			C88.3,431.2,87.8,431.2,87.8,431.6L87.8,431.6z"/>
	</g>
</g>
<g>
	<g>
		<path class="st0" d="M98.5,436.4c-0.1,3.5-0.2,7.3,0.7,10.8c0.1,0.3,0.5,0.2,0.5-0.1c0-3.6-0.6-7.1-0.6-10.7
			C99,436,98.5,436,98.5,436.4L98.5,436.4z"/>
	</g>
</g>
<g>
	<g>
		<path class="st0" d="M108,439.6c0.3,3.2,0.5,6.5,1.2,9.7c0.1,0.3,0.6,0.3,0.6-0.1c-0.1-3.2-0.7-6.5-1.2-9.7
			C108.6,439.2,108,439.3,108,439.6L108,439.6z"/>
	</g>
</g>
<g>
	<g>
		<path class="st0" d="M119.9,442.3c-0.1,3.9-0.3,7.9,0.1,11.8c0,0.3,0.4,0.3,0.4,0c0.4-3.9,0.2-7.9,0.1-11.8
			C120.5,441.9,119.9,441.9,119.9,442.3L119.9,442.3z"/>
	</g>
</g>
<g>
	<g>
		<path class="st0" d="M130.7,445c0,3.6-0.2,7.2,0,10.7c0,0.3,0.5,0.3,0.5,0c0.3-3.6,0.1-7.2,0-10.7
			C131.2,444.6,130.7,444.6,130.7,445L130.7,445z"/>
	</g>
</g>
<g>
	<g>
		<path class="st0" d="M142.4,448.7c0.1,4.3,0.2,8.6,0.8,12.9c0,0.3,0.4,0.3,0.4,0c0.1-4.3-0.3-8.6-0.6-12.9
			C143,448.3,142.4,448.3,142.4,448.7L142.4,448.7z"/>
	</g>
</g>
<g>
	<g>
		<path class="st0" d="M154.8,455.7c0.5,4.3,0.5,8.6,0.5,12.9c0,0.3,0.5,0.3,0.5,0c0.6-4.3,0.2-8.7-0.5-12.9
			C155.3,455.3,154.8,455.4,154.8,455.7L154.8,455.7z"/>
	</g>
</g>
<g>
	<g>
		<path class="st0" d="M166.2,462.2c0.7,2.8,0.8,5.6,1,8.5c0,0.3,0.5,0.3,0.5,0c0.3-2.9-0.2-5.9-0.9-8.7
			C166.7,461.7,166.1,461.8,166.2,462.2L166.2,462.2z"/>
	</g>
</g>
<g>
	<g>
		<path class="st0" d="M175.5,464.3c-0.5,3.9-0.9,8-0.2,11.9c0,0.2,0.4,0.2,0.4-0.1c0.2-3.9,0-7.9,0.3-11.8
			C176,464,175.6,464,175.5,464.3L175.5,464.3z"/>
	</g>
</g>
<g>
	<g>
		<path class="st0" d="M183.8,467.5c-0.1,3.6-0.7,7-1.2,10.6c0,0.2,0.3,0.4,0.3,0.1c1.5-3.3,1.7-7.2,1.4-10.8
			C184.3,467.2,183.8,467.2,183.8,467.5L183.8,467.5z"/>
	</g>
</g>
<g>
	<g>
		<path class="st0" d="M195.5,471.2c-1,4-1.6,8.4-1,12.5c0,0.3,0.5,0.2,0.5-0.1c0.3-4.1,0.4-8.2,1-12.3
			C196.1,471,195.6,470.8,195.5,471.2L195.5,471.2z"/>
	</g>
</g>
<g>
	<g>
		<path class="st0" d="M204.6,475.6c0.1,4.3,0,8.7,0.6,12.9c0.1,0.3,0.5,0.2,0.5-0.1c0.3-4.2-0.3-8.6-0.6-12.9
			C205.1,475.2,204.5,475.2,204.6,475.6L204.6,475.6z"/>
	</g>
</g>
<g>
	<g>
		<path class="st0" d="M162.7,94.3c-0.2,2.4,0,4.9,0.1,7.3c0.1,2.1,0.1,4.3,0.4,6.4c0,0.3,0.4,0.2,0.4-0.1c0.2-2.4-0.1-4.9-0.2-7.3
			c-0.1-2.1-0.1-4.3-0.5-6.4C163,94.1,162.7,94.1,162.7,94.3L162.7,94.3z"/>
	</g>
</g>
<g>
	<g>
		<path class="st0" d="M168.1,95.1c-0.6,3.8-0.7,8.3,1,11.9c0.1,0.3,0.5,0.1,0.4-0.2c-0.7-4-1.4-7.6-1-11.6
			C168.6,94.9,168.2,94.8,168.1,95.1L168.1,95.1z"/>
	</g>
</g>
<g>
	<g>
		<path class="st0" d="M176.4,96.7c-0.1,3.8-0.4,7.9,0.1,11.7c0,0.3,0.4,0.3,0.4,0c0.5-3.8,0.1-7.8,0.1-11.7
			C177,96.4,176.4,96.4,176.4,96.7L176.4,96.7z"/>
	</g>
</g>
<g>
	<g>
		<path class="st0" d="M184.5,99.1c-0.1,2.9-0.4,6,0,8.9c0,0.2,0.4,0.2,0.4,0c0.5-2.9,0.1-6,0-8.9C185,98.8,184.5,98.8,184.5,99.1
			L184.5,99.1z"/>
	</g>
</g>
<g>
	<g>
		<path class="st0" d="M191.6,98.7c0,4-0.2,8.2,0.5,12.1c0.1,0.3,0.5,0.2,0.6-0.1c0.3-4-0.3-8.1-0.5-12.1
			C192.1,98.4,191.6,98.4,191.6,98.7L191.6,98.7z"/>
	</g>
</g>
<g>
	<g>
		<path class="st0" d="M198.6,99.1c-0.4,4.3-0.6,9.1,0.3,13.3c0.1,0.3,0.5,0.2,0.5-0.1c0.3-4.4-0.1-8.9-0.2-13.3
			C199.1,98.7,198.6,98.7,198.6,99.1L198.6,99.1z"/>
	</g>
</g>
<g>
	<g>
		<path class="st0" d="M224,101.5c-0.9,3.7-1,8.1,0,11.8c0.1,0.3,0.5,0.2,0.5-0.1c-0.1-3.9-0.2-7.7,0-11.6
			C224.5,101.3,224.1,101.2,224,101.5L224,101.5z"/>
	</g>
</g>
<g>
	<g>
		<path class="st0" d="M254.5,103.5c-0.1,4.3-0.3,8.6,0,12.9c0,0.3,0.5,0.3,0.5,0c0.3-4.3,0.1-8.6,0-12.9
			C255,103.2,254.5,103.2,254.5,103.5L254.5,103.5z"/>
	</g>
</g>
<g>
	<g>
		<path class="st0" d="M260.8,106.4c0.4,4,0.4,8.1,1,12.1c0.1,0.3,0.5,0.2,0.5-0.1c0.3-4-0.3-8.2-1-12.1
			C261.2,106,260.7,106.1,260.8,106.4L260.8,106.4z"/>
	</g>
</g>
<g>
	<g>
		<path class="st0" d="M269.5,106.3c0.3,3.6,0.1,7.4,0.7,10.9c0,0.2,0.5,0.2,0.5,0c0.5-3.5-0.2-7.4-0.6-10.9
			C270.1,105.9,269.4,105.9,269.5,106.3L269.5,106.3z"/>
	</g>
</g>
<g>
	<g>
		<path class="st0" d="M278.6,107.6c-0.1,4.1-0.3,8.3,0,12.5c0,0.3,0.5,0.3,0.5,0c0.4-4.1,0.2-8.3,0-12.5
			C279.1,107.2,278.6,107.2,278.6,107.6L278.6,107.6z"/>
	</g>
</g>
<g>
	<g>
		<path class="st0" d="M287.7,108.8c0.4,4,0.4,8.1,1,12.1c0,0.2,0.4,0.2,0.4,0c0.6-3.9-0.1-8.3-0.9-12.2
			C288.3,108.4,287.7,108.5,287.7,108.8L287.7,108.8z"/>
	</g>
</g>
<g>
	<g>
		<path class="st0" d="M309.2,105.7c0.3,4.5,0.5,9,1.2,13.5c0,0.2,0.4,0.2,0.4-0.1c-0.1-4.5-0.7-9-1.2-13.4
			C309.6,105.4,309.2,105.4,309.2,105.7L309.2,105.7z"/>
	</g>
</g>
<g>
	<g>
		<path class="st0" d="M322.7,105.2c0.1,3.6-0.1,7.2-0.3,10.8c0,0.3,0.4,0.3,0.5,0.1c0.7-3.5,0.7-7.3,0.3-10.8
			C323.1,104.9,322.7,104.8,322.7,105.2L322.7,105.2z"/>
	</g>
</g>
<g>
	<g>
		<path class="st0" d="M336.2,103.5c-0.1,3-0.4,6.1,0,9.1c0,0.3,0.4,0.3,0.5,0c0.4-3,0.1-6.1,0-9.1
			C336.6,103.2,336.2,103.2,336.2,103.5L336.2,103.5z"/>
	</g>
</g>
<g>
	<g>
		<path class="st0" d="M350.1,100.9c-0.1,3.2-0.4,6.5,0,9.7c0,0.3,0.5,0.3,0.5,0c0.4-3.2,0.1-6.5,0-9.7
			C350.6,100.5,350.1,100.5,350.1,100.9L350.1,100.9z"/>
	</g>
</g>
<g>
	<g>
		<path class="st0" d="M366.1,97.1c0,4.4-0.1,9.2,0.7,13.5c0.1,0.3,0.5,0.2,0.6-0.1c0.4-4.3-0.3-9.1-0.7-13.4
			C366.6,96.8,366.1,96.8,366.1,97.1L366.1,97.1z"/>
	</g>
</g>
<g>
	<g>
		<path class="st0" d="M379.6,95.5c-0.2,4-0.5,8.3,0,12.3c0,0.3,0.5,0.3,0.5,0c0.5-4,0.2-8.3,0-12.3
			C380.1,95.2,379.6,95.2,379.6,95.5L379.6,95.5z"/>
	</g>
</g>
<g>
	<g>
		<path class="st0" d="M396,92.2c-0.6,4.1-0.9,8.4-0.3,12.5c0,0.3,0.6,0.2,0.6-0.1c0.1-4.1-0.1-8.2,0.3-12.4
			C396.6,91.9,396.1,91.9,396,92.2L396,92.2z"/>
	</g>
</g>
<g>
	<g>
		<path class="st0" d="M231.4,473.2c0.6,5.1,0.9,10.3,1.8,15.3c0,0.3,0.5,0.2,0.5-0.1c-0.3-5.1-1.2-10.2-1.9-15.3
			C231.8,472.9,231.4,472.9,231.4,473.2L231.4,473.2z"/>
	</g>
</g>
<g>
	<g>
		<path class="st0" d="M252.8,463.4c0.5,4.6,0.4,9.1,0.3,13.7c0,0.3,0.5,0.4,0.6,0.1c0.7-4.6,0.3-9.3-0.5-13.9
			C253.2,463.1,252.8,463.2,252.8,463.4L252.8,463.4z"/>
	</g>
</g>
<g>
	<g>
		<path class="st0" d="M277.8,453c-0.2,5.2-0.1,11.1,1.6,16.1c0.1,0.2,0.5,0.2,0.5-0.1c-0.6-5.4-1.6-10.6-1.7-16
			C278.1,452.8,277.8,452.8,277.8,453L277.8,453z"/>
	</g>
</g>
<g>
	<g>
		<path class="st0" d="M291.1,276c-0.1,9.4-0.5,18.8,0,28.2c0,0.4,0.5,0.4,0.5,0c0.4-9.3,0.1-18.8,0-28.2
			C291.6,275.7,291.1,275.7,291.1,276L291.1,276z"/>
	</g>
</g>
<g>
	<g>
		<path class="st0" d="M319.3,263.9c-0.1,7.5-0.5,15.1,0,22.5c0,0.3,0.4,0.3,0.5,0c0.5-7.4,0.1-15.1,0-22.5
			C319.7,263.6,319.3,263.6,319.3,263.9L319.3,263.9z"/>
	</g>
</g>
<g>
	<g>
		<path class="st0" d="M352.2,257.5c-0.1,5.1-0.3,10.2,0,15.3c0,0.3,0.4,0.3,0.4,0c0.3-5.1,0.2-10.2,0-15.3
			C352.7,257.2,352.3,257.2,352.2,257.5L352.2,257.5z"/>
	</g>
</g>
<g>
	<g>
		<path class="st0" d="M374.2,251.9c1.2,4.9,1.1,9.5,1.4,14.5c0,0.2,0.4,0.3,0.4,0.1c0.8-4.8-0.2-10-1.4-14.7
			C374.6,251.5,374.1,251.6,374.2,251.9L374.2,251.9z"/>
	</g>
</g>
<g>
	<g>
		<path class="st0" d="M408.6,240.6c-0.2,10.2-0.5,20.4,0,30.6c0,0.4,0.6,0.4,0.6,0c0.4-10.2,0.1-20.4,0-30.6
			C409.1,240.3,408.6,240.3,408.6,240.6L408.6,240.6z"/>
	</g>
</g>
<g>
	<g>
		<path class="st0" d="M300.9,464.3c0.9-11.1,0.7-22.7-0.8-33.8c0-0.2-0.4-0.2-0.4,0c0.7,11.3,1,22.5,0.7,33.8
			C300.4,464.6,300.9,464.6,300.9,464.3L300.9,464.3z"/>
	</g>
</g>
<g>
	<g>
		<path class="st0" d="M333.3,453c0.2-6.4,0.3-12.9,0-19.3c0-0.2-0.4-0.2-0.4,0c-0.2,6.4-0.2,12.9,0,19.3
			C333,453.2,333.3,453.2,333.3,453L333.3,453z"/>
	</g>
</g>
<g>
	<g>
		<path class="st0" d="M355.1,443.4c1-4,1.2-8.1,0.7-12.2c0-0.2-0.3-0.1-0.3,0c0.2,4.1-0.1,8-0.7,12
			C354.8,443.5,355.1,443.6,355.1,443.4L355.1,443.4z"/>
	</g>
</g>
<g>
	<g>
		<path class="st0" d="M380,432.1c0.5-3.8,0.3-7.7-0.7-11.4c-0.1-0.2-0.4-0.1-0.3,0.1c0.7,3.8,0.9,7.4,0.7,11.2
			C379.6,432.3,379.9,432.3,380,432.1L380,432.1z"/>
	</g>
</g>
<g>
	<g>
		<path class="st0" d="M405,421.6c0.1-3.7,0.1-7.5,0-11.3c0-0.2-0.3-0.2-0.4,0c-0.2,3.7-0.2,7.5,0,11.3
			C404.6,421.9,405,421.9,405,421.6L405,421.6z"/>
	</g>
</g>
<g>
	<g>
		<path class="st0" d="M423.5,413.6c0.1-3.5,0.2-7,0-10.5c0-0.3-0.4-0.3-0.4,0c-0.2,3.5-0.1,7,0,10.5
			C423.1,413.9,423.5,413.9,423.5,413.6L423.5,413.6z"/>
	</g>
</g>
<g>
	<g>
		<path class="st0" d="M133.9,399.1c0.3-7.5,0.3-15.1,0-22.5c0-0.2-0.4-0.2-0.4,0c-0.3,7.5-0.3,15.1,0,22.5
			C133.4,399.4,133.8,399.4,133.9,399.1L133.9,399.1z"/>
	</g>
</g>
<g>
	<g>
		<path class="st0" d="M156.3,407.2c1-2.8,1.2-6,0.8-8.9c0-0.2-0.4-0.2-0.4,0.1c0.2,3-0.1,5.9-0.7,8.8
			C156,407.3,156.2,407.3,156.3,407.2L156.3,407.2z"/>
	</g>
</g>
<g>
	<g>
		<path class="st0" d="M172.6,413.6c-0.3-2.8-0.1-5.3,0.5-8c0.1-0.3-0.3-0.3-0.4-0.1c-1,2.6-1.2,5.5-0.7,8.2
			C172.1,414,172.6,413.9,172.6,413.6L172.6,413.6z"/>
	</g>
</g>
<g>
	<g>
		<path class="st0" d="M199,423.4c1.4-2.8,2-5.9,1.6-9c0-0.2-0.4-0.3-0.4,0c0,3-0.4,5.9-1.7,8.7C198.5,423.4,198.8,423.6,199,423.4
			L199,423.4z"/>
	</g>
</g>
<g>
	<g>
		<path class="st0" d="M223.9,432.9c0.1-2.7,0.1-5.4,0-8c0-0.2-0.3-0.2-0.3,0c-0.2,2.7-0.1,5.4,0,8
			C223.6,433.2,223.9,433.2,223.9,432.9L223.9,432.9z"/>
	</g>
</g>
<g>
	<g>
		<path class="st0" d="M250.5,445c0.1-4.8,0.1-9.7-0.1-14.5c0-0.2-0.3-0.2-0.3,0c-0.2,4.8-0.2,9.7-0.1,14.5
			C250.1,445.3,250.5,445.3,250.5,445L250.5,445z"/>
	</g>
</g>
<g>
	<g>
		<path class="st0" d="M138.2,239.8c0,4.3-0.2,8.6,0,12.9c0,0.3,0.5,0.3,0.5,0c0.2-4.3,0-8.6,0-12.9
			C138.7,239.5,138.2,239.5,138.2,239.8L138.2,239.8z"/>
	</g>
</g>
<g>
	<g>
		<path class="st0" d="M163.1,245.4c0,2.1-0.1,4.3,0.1,6.4c0,0.3,0.4,0.3,0.5,0c0.2-2.1,0.1-4.3,0.1-6.4
			C163.7,245.1,163.1,245.1,163.1,245.4L163.1,245.4z"/>
	</g>
</g>
<g>
	<g>
		<path class="st0" d="M182.4,251.1c0,1.9-0.2,3.8,0,5.6c0,0.3,0.5,0.3,0.5,0c0.2-1.8,0.1-3.8,0-5.6
			C183,250.7,182.4,250.7,182.4,251.1L182.4,251.1z"/>
	</g>
</g>
<g>
	<g>
		<path class="st0" d="M209,255.9c-0.1,2.7-0.2,5.4,0,8c0,0.3,0.4,0.3,0.4,0c0.2-2.7,0.1-5.4,0-8C209.5,255.6,209,255.6,209,255.9
			L209,255.9z"/>
	</g>
</g>
<g>
	<g>
		<path class="st0" d="M239.5,264.7c0.2,2.4-0.1,4.8-0.7,7.2c-0.1,0.3,0.4,0.4,0.5,0.1c1-2.4,1.2-4.9,0.8-7.4
			C240.1,264.3,239.5,264.4,239.5,264.7L239.5,264.7z"/>
	</g>
</g>
<g>
	<g>
		<path class="st0" d="M260.4,272c0.3,6.4,0.3,12.9,1,19.3c0,0.4,0.6,0.4,0.6,0c0-6.4-0.6-12.9-1-19.3
			C261,271.6,260.4,271.6,260.4,272L260.4,272z"/>
	</g>
</g>
<g>
	<g>
		<g>
			<path class="st0" d="M221.2,79.5c-13.3-4.9-26-17.1-20.9-32.5c5.9-17.7,27.7-12.8,41.7-10c12.9,2.6,33.2,12.1,24.6,28.8
				c-3.9,7.5-11.7,11.4-19.6,13.1c-7.8,1.7-16.9,2.6-24.8,1c-0.6-0.1-1.1,0.8-0.5,1.1c6.1,2.7,14,1.2,20.4,0.3
				c7-1,14.1-2.8,19.6-7.3c9.5-7.7,11.3-20.7,1.9-29.3c-10.7-9.8-28.2-11.3-42-11.9c-12.2-0.6-22.5,5.7-23.9,18.5
				c-1.6,14.2,10.2,25.6,23.1,29.1C221.5,80.5,221.7,79.7,221.2,79.5L221.2,79.5z"/>
		</g>
	</g>
	<g>
		<g>
			<path class="st0" d="M218.8,72.9c2.1,3.7,9.3,6.4,12.9,3.1c1.3-1.2,0.9-3-0.6-3.8c-1.2-0.7-3.2-0.5-4.5-0.5
				c-2.2,0-4.4-0.1-6.5-0.1c-0.8,0-0.8,1.2,0,1.2c1.9,0,3.7,0,5.6,0c0.8,0,2-0.2,2.8,0c1.3-0.2,2.1,0.6,2.2,2.4
				c-0.5,0.2-1,0.4-1.5,0.5c-3.7,0.9-7.1-0.9-9.7-3.4C219.2,72.1,218.6,72.5,218.8,72.9L218.8,72.9z"/>
		</g>
	</g>
	<g>
		<g>
			<path class="st0" d="M208.3,57.7c-2.9,3.1,2.3,6.3,5.1,6.5c3.6,0.2,8.4-2.3,8.7-6.2c0-0.3-0.4-0.5-0.6-0.2c-1.6,2-2.8,4-5.5,4.8
				c-1.2,0.4-2.6,0.5-3.9,0.1c-2.6-0.7-3.4-2.4-3.4-4.8C208.8,57.6,208.5,57.5,208.3,57.7L208.3,57.7z"/>
		</g>
	</g>
	<g>
		<g>
			<path class="st0" d="M238.1,59.6c-1.3,3.3,0.6,7.2,4.1,8.2c2.9,0.8,7.5-0.8,7.8-4.3c0-0.4-0.5-0.6-0.7-0.3c-1.8,2-3.4,4-6.4,3.4
				c-3-0.7-4.5-4-4.1-6.8C238.9,59.3,238.3,59.2,238.1,59.6L238.1,59.6z"/>
		</g>
	</g>
	<g>
		<g>
			<path class="st0" d="M226,33.4c-2.7,2.9-4.8,7.4-5,11.4c0,0.5,0.7,0.6,0.9,0.1c0.6-1.9,1-3.9,1.8-5.8c0.8-1.9,1.9-3.6,2.9-5.3
				C226.7,33.5,226.3,33.1,226,33.4L226,33.4z"/>
		</g>
	</g>
	<g>
		<g>
			<path class="st0" d="M235.8,34.9c-2.9,4.4-5.1,9.6-4.7,15c0,0.3,0.6,0.5,0.6,0.1c1-5.2,2.1-10.1,4.6-14.8
				C236.5,34.8,236,34.5,235.8,34.9L235.8,34.9z"/>
		</g>
	</g>
	<g>
		<g>
			<path class="st0" d="M244.3,38.2c-2,2.1-3.8,5.4-4,8.3c0,0.5,0.7,0.7,0.9,0.3c0.6-1.2,0.9-2.5,1.4-3.8c0.6-1.5,1.5-2.9,2.2-4.4
				C245,38.3,244.6,37.9,244.3,38.2L244.3,38.2z"/>
		</g>
	</g>
	<g>
		<g>
			<path class="st0" d="M218.1,34.5c-1.8-4.1-4.6-7.8-7.9-10.8c-1.6-1.5-5.4-5.5-7.9-3.9c-2.1,1.3-2,6.3-2.2,8.5
				c-0.5,4.5-0.3,8.8,1.6,12.9c0.4,0.7,1.4,0.1,1.1-0.6c-1.5-3.3-1.9-6.7-1.7-10.2c0.2-2.8-0.2-9.6,4.2-8.9c2.1,0.3,5.4,4.4,6.9,6
				c2.1,2.3,3.7,4.9,5.4,7.4C217.7,35.3,218.2,34.9,218.1,34.5L218.1,34.5z"/>
		</g>
	</g>
	<g>
		<g>
			<path class="st0" d="M210.6,34.1c-0.7-2-1.9-3.8-3.3-5.4c-1.3-1.4-3.2-3.3-5.2-3.7c-0.6-0.1-1,0.6-0.6,1c1.4,1.3,3.2,2.1,4.6,3.5
				c1.5,1.5,2.7,3.2,3.7,4.9C210.1,34.8,210.8,34.6,210.6,34.1L210.6,34.1z"/>
		</g>
	</g>
	<g>
		<g>
			<path class="st0" d="M253.1,39.4c4.4-4.6,9.3-8,15.6-9.6c-0.3-0.2-0.6-0.4-0.9-0.7c0.7,7-0.8,13.1-2.5,19.8
				c-0.1,0.4,0.5,0.7,0.7,0.3c3.3-5.9,3.9-13.5,3.2-20.1c0-0.4-0.4-0.8-0.9-0.7c-6.3,1.7-12.1,5.1-15.9,10.4
				C252.2,39.3,252.8,39.7,253.1,39.4L253.1,39.4z"/>
		</g>
	</g>
	<g>
		<g>
			<path class="st0" d="M261.2,42.8c1-2.1,2.1-3.9,3.8-5.5c1.7-1.6,3.7-2.3,5.7-3.4c0.3-0.1,0.1-0.6-0.1-0.6c-4.6,0-9.1,4.9-10,9.2
				C260.4,42.9,261,43.2,261.2,42.8L261.2,42.8z"/>
		</g>
	</g>
	<g>
		<g>
			<path class="st0" d="M212.2,75.7c-4,6.5-0.8,13.7,4.8,18.2c7,5.7,16.7,8.2,25.5,9c21.5,2.1,43.2-5.9,62.4-14.6
				c0.7-0.3,0.2-1.6-0.5-1.3c-16.6,6.2-32.8,13.5-50.7,14.5c-8.5,0.5-17.1-0.3-25.1-3.1c-9-3.1-21.2-11.1-15.6-22.3
				C213.2,75.7,212.5,75.3,212.2,75.7L212.2,75.7z"/>
		</g>
	</g>
	<g>
		<g>
			<path class="st0" d="M215.4,91.9c-8.9,0.3-15.1,14.4-10.1,21.5c2.4,3.4,6.2,2.5,9.2,0.4c5.2-3.7,4.9-10.8,9.8-14.5
				c0.4-0.3,0.2-1.2-0.4-1c-5.3,2-5.1,9.5-8.8,13.2c-2.9,2.9-8.6,3.3-9.7-1.4c-0.6-2.6-0.3-5.6,0.5-8.1c1.7-5,5-7.7,9.7-9.5
				C215.8,92.4,215.8,91.9,215.4,91.9L215.4,91.9z"/>
		</g>
	</g>
	<g>
		<g>
			<path class="st0" d="M236.7,101.5c-6.5,3.5-8.6,17.8-0.7,20.9c4,1.5,8.2-0.4,10.7-3.6c3.5-4.6,3.2-10.7,7-15.3
				c0.3-0.4-0.1-0.9-0.5-0.7c-5.7,2.8-4.2,11.6-8.2,15.9c-4.5,4.9-12.3,3-12.6-4.1c-0.2-4.5,1.5-9.4,4.8-12.4
				C237.6,101.8,237.2,101.2,236.7,101.5L236.7,101.5z"/>
		</g>
	</g>
	<g>
		<g>
			<path class="st0" d="M269.4,54.8c15.7-5.7,31.8-13,49-11.3c8.8,0.9,18.1,5.4,21.1,14.3c3.1,8.9-1.2,18-6.7,24.8
				c-0.5,0.6,0.3,1.5,0.9,0.9c11.6-12.3,11.7-31.7-5.2-39.1c-9.1-4-19.5-2.9-29-1c-10.2,2-21.6,5.1-30.5,10.7
				C268.8,54.3,269,55,269.4,54.8L269.4,54.8z"/>
		</g>
	</g>
	<g>
		<g>
			<path class="st0" d="M288.3,99.6c3.8-5.5,14-5.6,20-6c5.7-0.4,11.4-0.4,17.1-0.6c10.1-0.3,20.6-1.2,29.8-5.9
				c6.9-3.5,14-10.7,11.1-19.1c-3.3-9.5-15.2-9.6-23.4-9c-1.2,0.1-1.2,1.9,0,1.8c5.5-0.4,11.5-0.9,16.6,1.9
				c7.2,4.1,6.9,12.8,1.4,18.3c-7.2,7.2-18.9,9.1-28.6,9.9c-9.1,0.7-18.2,0.5-27.2,1.5c-6,0.7-14,1.1-17.7,6.5
				C286.7,99.6,287.8,100.3,288.3,99.6L288.3,99.6z"/>
		</g>
	</g>
	<g>
		<g>
			<path class="st0" d="M292.6,103.9c-1.4,1-3,1.1-4-0.4c-0.7-1.1-0.9-2.7-0.3-3.9c0.4-0.8-0.8-1.4-1.1-0.7c-0.9,1.8-0.6,4,0.7,5.6
				c1.4,1.9,3.6,1.8,5.4,0.6C294,104.6,293.3,103.4,292.6,103.9L292.6,103.9z"/>
		</g>
	</g>
	<g>
		<g>
			<path class="st0" d="M338.1,49.7c12.5-1.5,31.2-1.2,38.1,11.7c7.1,13.3-2.2,27.8-14,34.2c-12.2,6.7-27.4,7.2-41,6.8
				c-9.9-0.3-20.1-5.4-28.6,1.7c-0.6,0.5,0.2,1.5,0.8,1c6.9-5.2,13.7-2.8,21.5-1.7c7.7,1.1,15.9,0.7,23.6,0
				c13.2-1.1,27.4-4.8,35.9-15.8c6.6-8.5,8.3-21.5,1.1-30.3C367,47,349.9,46.2,338,49.3C337.8,49.4,337.8,49.7,338.1,49.7
				L338.1,49.7z"/>
		</g>
	</g>
	<g>
		<g>
			<path class="st0" d="M319.6,68.2c-7-3.8-18.4-1.1-22.4,6.1c-4.7,8.6,5.7,14.4,12.3,16.9c1,0.4,1.4-1.2,0.4-1.6
				c-3.3-1.2-6.8-2.4-9.3-4.9c-3.6-3.6-4-8.7-0.2-12.3c5.3-5.1,12.2-4.9,18.9-3.6C319.7,69,320,68.5,319.6,68.2L319.6,68.2z"/>
		</g>
	</g>
	<g>
		<g>
			<path class="st0" d="M332.8,84c1.3,0.8,2.9,0.7,4.1,1.4c1,0.6,1.5,1.7,1.2,2.9c-0.3,1.1-1.5,1.7-2.6,2c-0.2,0.1-0.2,0.4,0,0.5
				c2.5,0.7,4.4-1.9,3.7-4.2c-0.8-2.6-3.9-3.1-6.2-3.3C332.6,83.2,332.5,83.8,332.8,84L332.8,84z"/>
		</g>
	</g>
</g>
<g>
	<g>
		<path class="st0" d="M225.9,115.2c-0.1,1.9,0.5,3.4,0.7,5.3c0.5,4.1,0.5,8.3,0.4,12.4c-0.1,8.7-1.6,16.9-2.7,25.5
			c-0.1,0.6,0.8,0.9,1,0.3c2.5-7.8,3-16.6,3.1-24.8c0-6.3-0.1-12.7-1.8-18.7C226.4,114.8,225.9,114.9,225.9,115.2L225.9,115.2z"/>
	</g>
</g>
<g>
	<g>
		<path class="st0" d="M157.2,93c-0.9,4.6-1.1,10.4-0.1,15c0.1,0.6,1,0.4,1-0.1c0.3-2.6,0-5.3-0.1-8c0-2.3,0-4.6-0.3-6.9
			C157.7,92.7,157.3,92.7,157.2,93L157.2,93z"/>
	</g>
</g>
<g>
	<g>
		<path class="st0" d="M247.6,117.5c11.6,1.1,23.3,2.2,34.9,3.2c5.3,0.5,10.9,1.3,16.2,1.1c0.5,0,0.5-0.8,0-0.8
			c-17-0.6-34.2-3.2-51.2-4.8C246.7,116.1,246.7,117.4,247.6,117.5L247.6,117.5z"/>
	</g>
</g>
<g>
	<g>
		<path class="st0" d="M213.8,114.2c6,0.6,12,1.2,18.1,1.8c0.8,0.1,0.8-1.2,0-1.3c-6-0.6-12-1.1-18.1-1.7
			C213,112.9,213.1,114.2,213.8,114.2L213.8,114.2z"/>
	</g>
</g>
<g>
	<g>
		<path class="st0" d="M156.9,108.2c15.9,3,32.6,3.6,48.6,5.3c0.8,0.1,0.8-1.2,0-1.2c-16.1-1.5-32.5-2.2-48.4-4.7
			C156.7,107.5,156.5,108.1,156.9,108.2L156.9,108.2z"/>
	</g>
</g>
<g>
	<g>
		<path class="st0" d="M252.2,103.9c10.8,1,21.6,2.1,32.5,3c4.9,0.4,10,1.1,14.9,1c0.5,0,0.5-0.8,0-0.8c-15.8-0.6-31.7-2.9-47.4-4.4
			C251.4,102.5,251.4,103.8,252.2,103.9L252.2,103.9z"/>
	</g>
</g>
<g>
	<g>
		<path class="st0" d="M221.8,101c5,0.5,10.1,1,15.1,1.5c0.8,0.1,0.8-1.2,0-1.3c-5-0.5-10.1-1-15.1-1.4
			C220.9,99.6,221,100.9,221.8,101L221.8,101z"/>
	</g>
</g>
<g>
	<g>
		<path class="st0" d="M157.7,94.2c15.9,3,32.5,3.6,48.5,5.3c0.8,0.1,0.8-1.2,0-1.2c-16-1.5-32.4-2.2-48.3-4.7
			C157.5,93.5,157.3,94.1,157.7,94.2L157.7,94.2z"/>
	</g>
</g>
<g>
	<g>
		<path class="st0" d="M298.4,106.6c-0.3,4.9-0.2,10.5,0.6,15.4c0.1,0.6,1,0.4,1.1-0.1c0.4-4.9-0.1-10.5-0.8-15.3
			C299.2,106,298.5,106.1,298.4,106.6L298.4,106.6z"/>
	</g>
</g>
<g>
	<g>
		<path class="st0" d="M157.3,93.7c9,0.6,18.9-1.7,27.9-2.7c8.7-1,17.5-1.8,26.1-3c0.6-0.1,0.5-1.1-0.1-1.1c-9.3,0.7-18.6,2-27.9,3
			c-8.4,0.9-17.9,0.9-26,3.3C157,93.3,157,93.6,157.3,93.7L157.3,93.7z"/>
	</g>
</g>
<g>
	<g>
		<path class="st0" d="M373.6,88.6c11.4,0.9,22.8,2.3,34.2,2.7c0.6,0,0.7-0.9,0.1-1c-11.1-2.2-23.1-2-34.3-2.8
			C372.9,87.4,372.9,88.5,373.6,88.6L373.6,88.6z"/>
	</g>
</g>
<g>
	<g>
		<path class="st0" d="M337.5,85.4c5.7,1,11.5,1.2,17.2,1.7c0.7,0.1,0.7-1,0-1.1c-5.7-0.4-11.4-0.8-17.2-1.2
			C337.2,84.7,337.1,85.3,337.5,85.4L337.5,85.4z"/>
	</g>
</g>
<g>
	<g>
		<path class="st0" d="M360.2,98.5c15.3-2.2,30.5-4.4,45.8-6.7c0.9-0.1,0.5-1.5-0.4-1.3c-15.3,2.2-30.5,4.6-45.8,6.8
			C359.1,97.5,359.5,98.6,360.2,98.5L360.2,98.5z"/>
	</g>
</g>
<g>
	<g>
		<path class="st0" d="M297.7,107.4c8-0.7,16-2.1,24-3.3c0.7-0.1,0.4-1.2-0.3-1.1c-7.9,1.2-15.9,2.1-23.7,3.7
			C297.3,106.8,297.3,107.5,297.7,107.4L297.7,107.4z"/>
	</g>
</g>
<g>
	<g>
		<path class="st0" d="M299.5,122.3c7.3-0.2,14.8-2.5,22-3.7c10.2-1.7,20.4-3.3,30.6-4.9c18.4-2.9,36.7-5.7,55.2-8.1
			c0.7-0.1,0.8-1.3,0-1.2c-17.9,2.3-35.7,5-53.4,7.8c-10.1,1.6-20.1,3.2-30.2,4.9c-7.8,1.3-16.7,1.8-24.2,4.5
			C299.2,121.9,299.2,122.4,299.5,122.3L299.5,122.3z"/>
	</g>
</g>
<g>
	<g>
		<path class="st0" d="M407,91.1c-0.6,4.5-0.3,9.3,0,13.8c0,0.8,1.3,0.9,1.3,0c0-4.5,0.1-9.4-0.7-13.9C407.5,90.6,407,90.8,407,91.1
			L407,91.1z"/>
	</g>
</g>
<g>
	<g>
		<g>
			<path class="st0" d="M206.6,171.1c1-1.8,2-2.9,3.8-4c2-1.2,5-2.2,6.4,0.5c2,3.9-3.4,9.3-7.1,6.6c-0.3-0.2-0.7,0.2-0.5,0.5
				c1.1,2.1,4,1.4,5.7,0.4c2.3-1.5,4.2-4.3,3.4-7.1c-1.8-6.6-11.2-2-12.3,2.8C205.9,171.2,206.4,171.4,206.6,171.1L206.6,171.1z"/>
		</g>
	</g>
	<g>
		<g>
			<path class="st0" d="M202.5,167.7c-0.2-3.5-5.8-7.3-8.6-4c-2.7,3.2,0.9,8.5,4.3,9.4c0.7,0.2,1.1-0.8,0.5-1.1
				c-2.1-1.2-4.8-3.4-4.1-6.3c0.5-2.5,3.2-1.9,4.7-1c1.3,0.8,1.9,1.9,2.7,3.1C202.1,168.1,202.5,168,202.5,167.7L202.5,167.7z"/>
		</g>
	</g>
	<g>
		<g>
			<path class="st0" d="M197.6,175.4c5.2-7.3,11.7-11.7,20.3-14.1c7.7-2.2,21.5-4.9,26.2,4c6,11.6-10,18.5-18.8,19.4
				c-9,0.9-22-1.2-27.1-9.6c-0.5-0.8-1.7-0.1-1.3,0.7c5.4,9.7,20.4,11.6,30.3,10.2c9.1-1.3,21.3-7.2,19.2-18.5
				c-2-10.6-15-10.4-23.1-8.9c-10.1,1.8-21.6,6.6-26.2,16.4C196.9,175.5,197.4,175.8,197.6,175.4L197.6,175.4z"/>
		</g>
	</g>
	<g>
		<g>
			<path class="st0" d="M247.2,170.1c6.6,0.7,11.7,5.6,18.4,6.1c3.7,0.2,9.2,0.3,11.5-3.2c2.6-4.1,0.8-10-1.2-13.9
				c-4.7-9.1-3.6-15.8,1.7-24.2c0.3-0.5-0.4-0.9-0.8-0.6c-3.5,2.9-5.3,7.8-5.7,12.2c-0.6,6.5,2.7,10.4,4.7,16.3
				c1.5,4.3,1.6,9.9-3.7,11.4c-2.8,0.8-6.6,0.7-9.4,0c-5.4-1.3-9.8-5.6-15.6-4.8C246.7,169.5,246.7,170.1,247.2,170.1L247.2,170.1z"
				/>
		</g>
	</g>
</g>
<g>
	<g>
		<path class="st0" d="M271.6,119.6c0.4,11.5-1.6,22.7-1.8,34.3c-0.4,22.1-1.1,44.7,0.6,66.8c0,0.4,0.6,0.4,0.7,0
			c0.5-22.2-0.6-44.6-0.3-66.8c0.1-11.6,2-22.7,1.4-34.3C272.1,119.3,271.6,119.3,271.6,119.6L271.6,119.6z"/>
	</g>
</g>
<g>
	<g>
		<path class="st0" d="M326.8,118.8c0.6,3.6,0.2,7.7,0.2,11.3c0,7.5,0,15-0.1,22.5c-0.2,16.5-0.4,33.1-0.9,49.6
			c-0.1,4.4-0.1,8.9-0.3,13.3c0,0.6,1,0.8,1.1,0.2c1.7-10.7,0.8-22.3,1-33.1c0.3-17,0.6-34,0.4-51c0-4,0.6-9.1-0.7-13
			C327.4,118.1,326.7,118.3,326.8,118.8L326.8,118.8z"/>
	</g>
</g>
<g>
	<g>
		<path class="st0" d="M269.4,219.2c2.3,3.9,6.8,5.4,10.9,6.6c6,1.8,12.4,2.7,18.7,2.6c9.6,0,24.4-1.6,30.3-10.2
			c0.4-0.5-0.4-1-0.8-0.7c-8.2,7-18.8,9.3-29.5,9.4c-9.5,0.1-21.9-1.3-29-8.2C269.7,218.6,269.2,218.9,269.4,219.2L269.4,219.2z"/>
	</g>
</g>
<g>
	<g>
		<path class="st0" d="M123.8,228.5c23.4-5.5,46.4-12.6,69.7-18.3c23.3-5.7,46.8-10.8,70.4-15.4c1.1-0.2,0.6-1.9-0.5-1.6
			c-23.6,4.6-47,9.8-70.4,15.5c-23.2,5.6-47,11-69.5,18.9C122.9,227.7,123.2,228.6,123.8,228.5L123.8,228.5z"/>
	</g>
</g>
<g>
	<g>
		<path class="st0" d="M263.5,193.9c2.3,0.4,5.3,1.4,7.5,0.7c0.3-0.1,0.4-0.6,0.1-0.7c-2.1-1.1-5.2-0.7-7.5-0.7
			C263.2,193.1,263.1,193.8,263.5,193.9L263.5,193.9z"/>
	</g>
</g>
<g>
	<g>
		<path class="st0" d="M327.7,205.3c16.9,5.9,34.3,10.6,51.5,15.6c17.2,5,34.4,10.2,51.8,14.7c1.2,0.3,1.7-1.5,0.5-1.8
			c-17.2-5.1-34.5-9.8-51.8-14.7c-17.2-4.9-34.4-10.3-51.8-14.7C327.3,204.3,327.1,205.1,327.7,205.3L327.7,205.3z"/>
	</g>
</g>
<g>
	<g>
		<path class="st0" d="M123.6,232.9c23.9,9.7,49.7,14.9,74.5,21.3c26.9,7,53.8,14.1,80.8,21c1.2,0.3,1.7-1.5,0.5-1.9
			C227.6,259.7,175,248.1,123.8,232C123.2,231.8,123,232.7,123.6,232.9L123.6,232.9z"/>
	</g>
</g>
<g>
	<g>
		<path class="st0" d="M279.7,275c27.7-6.7,55.1-14.5,82.7-21.7c22.5-5.8,44.7-13.2,67.4-18.3c1.2-0.3,0.7-2.1-0.5-1.8
			c-22.6,5.1-44.9,12.4-67.3,18.3c-27.5,7.2-55.5,13.5-82.4,22.8C279.1,274.5,279.3,275.2,279.7,275L279.7,275z"/>
	</g>
</g>
<g>
	<g>
		<path class="st0" d="M122.1,231.2c-0.8,8.6-0.1,17.5,0,26.1c0.1,11.9,0.3,23.9,0.4,35.8c0.3,25,0.6,50,1,75.1
			c0.2,10.2,0.3,20.4,0.6,30.5c0,1.1,1.8,1.1,1.8,0c-0.7-45.6-1.1-91.3-1.9-136.9c-0.2-10.1,0.3-20.5-0.9-30.5
			C122.9,230.7,122.1,230.6,122.1,231.2L122.1,231.2z"/>
	</g>
</g>
<g>
	<g>
		<path class="st0" d="M215.2,476.2c-0.6,6.1,0.1,12.3,1.3,18.3c0.2,1,1.7,0.6,1.5-0.4c-1.1-6-1.5-11.8-1.9-17.9
			C216.1,475.6,215.3,475.6,215.2,476.2L215.2,476.2z"/>
	</g>
</g>
<g>
	<g>
		<path class="st0" d="M214.8,478.2c10.8-3.8,21.3-8.9,32-12.9c10.8-4,21.7-7.7,32.8-10.8c1.1-0.3,0.6-2-0.5-1.7
			c-11.4,3.1-22.6,7-33.6,11.2c-10.4,4-21.4,7.9-31.2,13.2C213.9,477.5,214.3,478.4,214.8,478.2L214.8,478.2z"/>
	</g>
</g>
<g>
	<g>
		<path class="st0" d="M279.2,452.5c1.4-14.4,0.6-29.3,0.6-43.8c0-14.9,0-29.9,0-44.8c0-14.6,0-29.2,0-43.8
			c0-14.7,1.3-30.1-0.3-44.8c-0.1-0.7-1.1-0.7-1.2,0c-1.6,14.3-0.3,29.4-0.3,43.8c0,14.9,0,29.9,0,44.8c0,14.6,0,29.2,0,43.8
			c0,14.8-0.9,30,0.6,44.8C278.6,452.9,279.1,452.9,279.2,452.5L279.2,452.5z"/>
	</g>
</g>
<g>
	<g>
		<path class="st0" d="M59.4,432.5c33.3,11.4,67.4,21.6,99.4,36.3c18.7,8.6,37.4,17.1,56.1,25.7c1,0.5,1.9-1.1,0.9-1.5
			c-16.6-7.7-33.2-15.3-49.8-23c-8.7-4-17.3-8.2-26.3-11.5c-18.6-6.8-37.3-13.2-56.1-19.4c-8-2.6-16-5.2-24.1-7.4
			C59.1,431.6,58.9,432.3,59.4,432.5L59.4,432.5z"/>
	</g>
</g>
<g>
	<g>
		<path class="st0" d="M60.3,422.6c26.4,8.1,52.5,16.7,78.5,26.3c25.6,9.5,50.8,20.3,76.6,29.3c1.2,0.4,1.6-1.4,0.5-1.9
			c-25.4-10.1-50.9-20-76.6-29.5c-25.7-9.6-51.9-19.5-78.8-25.2C60,421.6,59.8,422.5,60.3,422.6L60.3,422.6z"/>
	</g>
</g>
<g>
	<g>
		<path class="st0" d="M62.2,422c21.2-6.9,42.1-14.7,63.1-22.2c0.8-0.3,0.5-1.6-0.4-1.3c-21,7.5-42.2,14.6-63,22.6
			C61.4,421.3,61.7,422.2,62.2,422L62.2,422z"/>
	</g>
</g>
<g>
	<g>
		<path class="st0" d="M124.7,399c12.7,4.7,25.8,8.3,38.5,12.9c12.8,4.7,25.6,9.7,38.3,14.6c25.4,9.9,50.9,19.6,77.4,26.3
			c1.1,0.3,1.6-1.5,0.5-1.8c-26.4-6.9-51.9-16.7-77.4-26.5c-12.7-4.9-25.5-9.9-38.3-14.4c-12.6-4.5-25.6-9.4-38.8-11.8
			C124.5,398.2,124.3,398.8,124.7,399L124.7,399z"/>
	</g>
</g>
<g>
	<g>
		<path class="st0" d="M430.7,234.1c-1.3,5.8-0.8,12.1-0.7,18c0.1,10.8,0.6,21.5,1,32.3c0.8,20.8,2.1,41.6,1.8,62.4
			c-0.2,21.2-0.4,42.3-0.6,63.5c0,1.1,1.7,1.1,1.7,0c0.4-28.8,1.4-57.7,0.5-86.5c-0.7-22.3-2-44.5-2.7-66.8
			c-0.2-7.6-0.7-15.3-0.2-22.8C431.6,233.7,430.8,233.6,430.7,234.1L430.7,234.1z"/>
	</g>
</g>
<g>
	<g>
		<path class="st0" d="M217.3,495.3c14.1-3.2,28-9.1,41.7-14c14.3-5.1,28.6-10.5,42.8-15.9c28.9-11.1,57.7-22.7,86.2-34.7
			c15-6.3,29.9-12.7,44.8-19.2c0.9-0.4,0.1-1.8-0.8-1.4c-35.8,15.7-71.8,30.8-108.2,45.2c-18.2,7.2-36.6,14.2-55,21
			c-9,3.3-18,6.6-27,9.7c-8.2,2.9-16.7,5.3-24.7,8.8C216.8,494.9,217,495.3,217.3,495.3L217.3,495.3z"/>
	</g>
</g>
<g>
	<g>
		<path class="st0" d="M184.2,279.7c-22.2-3.1-40,15.8-44.3,36.2c-4.6,21.7,1,48.4,17.8,63.6c16.2,14.7,40,17.8,59.5,8
			c10.5-5.3,18.6-13.6,21.1-25.3c2.4-11.7,1.6-24.1-2-35.4c-7.7-24.1-29.2-44.4-54.6-48.2c-1.1-0.2-1.5,1.4-0.5,1.6
			c20.6,5.2,38.5,16.7,48.5,36c9.5,18.3,13.6,48.1-3.8,63.1c-16.6,14.2-41.6,15.6-59.9,3.9c-18.5-11.9-26-34.2-25.6-55.5
			c0.5-24.2,17.1-49.1,43.7-47.2C184.5,280.6,184.6,279.8,184.2,279.7L184.2,279.7z"/>
	</g>
</g>
<g>
	<g>
		<path class="st0" d="M149.8,369c29.5-6.7,58.9-14.9,87.9-23.6c1-0.3,0.6-1.8-0.4-1.5c-29.2,8-58.6,15.8-87.7,24.3
			C149.1,368.3,149.3,369.1,149.8,369L149.8,369z"/>
	</g>
</g>
<g>
	<g>
		<path class="st0" d="M377.4,283.9c-21.8-2.8-43.6,9.4-55.3,27.6c-12.2,18.9-14.9,45.5-6.8,66.6c8.1,21.2,32.3,26.1,51.8,18.1
			c21.7-8.9,33.9-31,37.5-53.3c3.7-23.2-3.2-53.8-29.5-60c-1-0.2-1.4,1.3-0.4,1.6c45.4,14.7,32.7,85.7-0.9,106.2
			c-18.1,11-45.8,10.6-55.7-11c-8.7-18.9-6.6-44.1,2.9-62.3c10.9-20.9,32.9-34,56.6-32.6C378,284.7,377.9,283.9,377.4,283.9
			L377.4,283.9z"/>
	</g>
</g>
<g>
	<g>
		<path class="st0" d="M310,346.2c13.2,5.4,27.8,8.4,41.5,12.3c13.9,4,27.7,8,41.6,11.8c1.2,0.3,1.7-1.5,0.5-1.9
			c-13.8-4.1-27.7-7.9-41.6-11.8c-13.7-3.8-27.7-8.9-41.8-11.2C309.7,345.4,309.5,346.1,310,346.2L310,346.2z"/>
	</g>
</g>
</svg>
